<?xml version="1.0" encoding="UTF-8"?>
<svg version="1.1" xmlns="http://www.w3.org/2000/svg" width="894" height="894" style="background: transparent;">

<path d="M0 0 C11.98519134 9.37971496 13.99334598 21.76451773 15.8984375 36.078125 C16.1128099 37.61125279 16.3283989 39.14421092 16.54516602 40.67700195 C17.44255936 47.064346 18.29520439 53.45697997 19.109375 59.85546875 C22.75229085 88.36478555 28.03037319 117.51897425 38.48828125 144.38671875 C39.3359375 146.828125 39.3359375 146.828125 39.3359375 149.828125 C39.9959375 149.828125 40.6559375 149.828125 41.3359375 149.828125 C41.67625 148.6834375 41.67625 148.6834375 42.0234375 147.515625 C43.3359375 143.828125 43.3359375 143.828125 44.40625 141.7890625 C47.81553532 135.20635437 49.52061079 128.52678427 51.0859375 121.328125 C51.29645752 120.36720947 51.50697754 119.40629395 51.72387695 118.41625977 C54.01819758 107.37853961 54.49890882 96.58029357 54.4609375 85.328125 C54.46480469 84.18214844 54.46867188 83.03617187 54.47265625 81.85546875 C54.46553536 75.59620321 54.20693331 69.44923542 53.57617188 63.22216797 C52.7405076 54.89439984 51.94781441 46.74445844 57.3359375 39.828125 C62.26178568 34.61046116 66.78045902 31.81414573 74.0234375 31.453125 C87.92811793 31.78320643 98.8047547 41.71957874 108.3359375 50.828125 C108.87871338 51.34391113 109.42148926 51.85969727 109.98071289 52.39111328 C144.69237881 86.10391673 158.83289091 141.23052785 159.5390625 188.21484375 C159.5711697 191.31516069 159.58325341 194.4151509 159.5859375 197.515625 C159.58694458 198.3273819 159.58795166 199.13913879 159.58898926 199.97549438 C159.57720568 214.09551749 158.7404627 227.89068855 156.3359375 241.828125 C156.19671875 242.64716309 156.0575 243.46620117 155.9140625 244.31005859 C153.01065928 260.6450621 147.49149912 276.12622088 139.00512695 290.39868164 C136.77709267 293.98705044 136.77709267 293.98705044 136.8828125 298.015625 C137.36234375 298.61375 137.841875 299.211875 138.3359375 299.828125 C138.84769531 300.55128906 139.35945312 301.27445312 139.88671875 302.01953125 C140.46808594 302.80199219 141.04945313 303.58445312 141.6484375 304.390625 C151.80526349 318.84619062 155.15615322 334.48967595 154.3359375 351.828125 C155.44521606 352.23454224 155.44521606 352.23454224 156.5769043 352.64916992 C159.20516902 353.77224667 161.19426668 354.99505139 163.48046875 356.69140625 C164.24037109 357.24892578 165.00027344 357.80644531 165.78320312 358.38085938 C166.56373047 358.96158203 167.34425781 359.54230469 168.1484375 360.140625 C173.74557888 364.28335412 179.36670324 368.2363719 185.3359375 371.828125 C185.4390625 370.75433594 185.5421875 369.68054688 185.6484375 368.57421875 C191.20686217 324.56037337 214.23342123 277.19314791 242.3984375 243.328125 C242.85162354 242.78148193 243.30480957 242.23483887 243.77172852 241.67163086 C245.93349601 239.15223459 247.12254822 237.89925476 250.3359375 236.828125 C250.119375 236.15910156 249.9028125 235.49007812 249.6796875 234.80078125 C246.7095174 224.55644457 244.80712205 212.18696871 249.3984375 202.140625 C252.01008629 197.80263209 255.16696048 194.66677677 259.3359375 191.828125 C260.2434375 191.209375 261.1509375 190.590625 262.0859375 189.953125 C269.95589652 187.22890842 276.2260877 188.52920349 283.56713867 191.96850586 C284.15084229 192.25218018 284.7345459 192.53585449 285.3359375 192.828125 C282.3667639 139.49162846 273.45685668 82.11437495 233.0234375 43.578125 C221.46275516 33.43572894 208.39141975 26.52336415 193.7109375 22.078125 C193.01830811 21.86704102 192.32567871 21.65595703 191.61206055 21.43847656 C181.2813109 18.46345515 170.72542325 18.56948976 160.046875 18.3984375 C158.43039062 18.35203125 158.43039062 18.35203125 156.78125 18.3046875 C155.80687988 18.28486816 154.83250977 18.26504883 153.82861328 18.24462891 C150.9581027 17.76499217 150.04984219 17.13855299 148.3359375 14.828125 C147.8671875 12.70703125 147.8671875 12.70703125 147.8359375 10.390625 C147.78953125 9.24787109 147.78953125 9.24787109 147.7421875 8.08203125 C148.63046164 4.71009585 150.48024825 3.72946196 153.3359375 1.828125 C156.20410156 1.32641602 156.20410156 1.32641602 159.3515625 1.33203125 C160.51236328 1.32913086 161.67316406 1.32623047 162.86914062 1.32324219 C164.09568359 1.34547852 165.32222656 1.36771484 166.5859375 1.390625 C167.84341797 1.40383789 169.10089844 1.41705078 170.39648438 1.43066406 C203.84704859 2.07559782 230.81624769 16.0732525 254.0625 39.5859375 C289.18243768 76.88048433 299.056758 129.99755896 302.5859375 179.265625 C302.75939162 181.56973885 302.93386639 183.87377611 303.109375 186.17773438 C303.52993264 191.72704182 303.93813738 197.27714208 304.3359375 202.828125 C305.28235107 202.18319092 306.22876465 201.53825684 307.20385742 200.8737793 C312.32729809 197.5275084 317.31085413 197.09172592 323.3359375 197.828125 C326.47662027 198.91455454 329.40119909 200.27403185 332.3359375 201.828125 C332.3359375 202.488125 332.3359375 203.148125 332.3359375 203.828125 C332.9959375 203.828125 333.6559375 203.828125 334.3359375 203.828125 C334.31273437 202.61382812 334.28953125 201.39953125 334.265625 200.1484375 C333.52354107 142.95699168 344.78005386 78.92579682 385.70092773 36.10913086 C407.14188709 14.37004337 434.5819989 1.87761506 465.11523438 1.59375 C466.80229492 1.58601562 466.80229492 1.58601562 468.5234375 1.578125 C469.65974609 1.5575 470.79605469 1.536875 471.96679688 1.515625 C478.17843876 1.48664941 482.91106654 1.66681406 488.3359375 4.828125 C489.76255969 7.68136937 489.64627618 9.66267049 489.3359375 12.828125 C487.68408203 15.49194336 487.68408203 15.49194336 485.3359375 17.828125 C482.59716797 18.42407227 482.59716797 18.42407227 479.453125 18.39453125 C478.29433838 18.40258789 477.13555176 18.41064453 475.94165039 18.41894531 C474.71051514 18.40959961 473.47937988 18.40025391 472.2109375 18.390625 C442.82846441 18.80390702 418.69398488 28.44217785 397.765625 49.40234375 C373.31239438 75.80354359 361.95008346 111.00724902 356.3359375 145.828125 C356.09834717 147.29403076 356.09834717 147.29403076 355.85595703 148.78955078 C353.52323237 163.4714034 352.09049858 177.93816405 352.3359375 192.828125 C353.4703125 192.168125 354.6046875 191.508125 355.7734375 190.828125 C361.34238126 188.08769573 366.00578548 187.85393127 371.953125 189.59375 C379.65202816 192.47227165 384.8018961 195.87677507 388.390625 203.44921875 C390.86226146 212.28378708 390.47945806 222.8884473 388.0859375 231.703125 C387.20083071 235.01001212 387.20083071 235.01001212 388.65234375 238.04296875 C389.39355469 238.61144531 390.13476562 239.17992187 390.8984375 239.765625 C413.79017002 259.97666157 426.80851491 293.00206172 437.3359375 320.828125 C437.79484375 322.02179688 438.25375 323.21546875 438.7265625 324.4453125 C442.26521223 333.96383234 444.9771937 343.71410986 447.68554688 353.49365234 C448.23887666 355.4797407 448.80906466 357.46111986 449.3828125 359.44140625 C449.65609375 360.39402344 449.929375 361.34664063 450.2109375 362.328125 C450.43523438 363.1015625 450.65953125 363.875 450.890625 364.671875 C451.39274278 367.10318215 451.36508157 369.35139018 451.3359375 371.828125 C452.23425293 371.22226562 453.13256836 370.61640625 454.05810547 369.9921875 C457.3834438 367.75120965 460.71281558 365.51628998 464.04345703 363.28320312 C465.48597664 362.31480744 466.92738862 361.34475975 468.36767578 360.37304688 C470.43495158 358.97873835 472.50610359 357.59036818 474.578125 356.203125 C475.22401581 355.76564941 475.86990662 355.32817383 476.53536987 354.87744141 C481.10819409 351.828125 481.10819409 351.828125 483.3359375 351.828125 C483.32022705 351.24434082 483.3045166 350.66055664 483.28833008 350.05908203 C483.22511722 347.35719905 483.18667827 344.65547241 483.1484375 341.953125 C483.12330078 341.0353125 483.09816406 340.1175 483.07226562 339.171875 C482.91796229 324.56449302 489.42845026 310.46271216 499.1484375 299.6953125 C500.56731235 297.92175795 500.56731235 297.92175795 500.02612305 295.9309082 C499.13061047 293.20255666 497.74970084 290.79805198 496.35253906 288.29858398 C469.860776 240.82074666 472.14113408 175.72376246 486.50195312 124.61767578 C488.71933906 117.20085737 491.38949974 109.98323765 494.3359375 102.828125 C494.74457031 101.82136719 495.15320313 100.81460938 495.57421875 99.77734375 C503.8911632 80.48546229 515.75399388 63.82257056 530.3359375 48.828125 C531.17125 47.96445312 532.0065625 47.10078125 532.8671875 46.2109375 C540.51568302 38.82868708 549.92412233 31.86611526 560.8984375 31.390625 C567.95530639 31.80134224 573.38831169 33.35093391 578.2734375 38.640625 C582.68329899 43.86365244 583.60509886 49.04712197 583.5234375 55.765625 C583.51699219 56.92964844 583.51054688 58.09367187 583.50390625 59.29296875 C583.3359375 62.828125 583.3359375 62.828125 582.83984375 65.91796875 C580.55165539 83.6736009 581.90816501 102.30975918 585.3359375 119.828125 C585.5525 120.95863281 585.7690625 122.08914062 585.9921875 123.25390625 C587.57230683 130.35503776 590.23863143 136.98098885 593.03125 143.67578125 C593.86872885 145.69927056 594.64341459 147.75055627 595.3359375 149.828125 C595.9959375 149.828125 596.6559375 149.828125 597.3359375 149.828125 C597.49835938 148.84199219 597.49835938 148.84199219 597.6640625 147.8359375 C598.51638878 144.02029079 599.80578925 140.39033506 601.0859375 136.703125 C607.3537503 118.0800553 611.03259067 99.28529853 614.29541016 79.94584656 C614.99055658 75.82951182 615.71015861 71.71923365 616.46484375 67.61328125 C617.96503898 59.40138362 619.32300894 51.20716051 620.328125 42.91796875 C620.4547905 41.88431938 620.4547905 41.88431938 620.58401489 40.82978821 C620.9976261 37.43673781 621.39439172 34.04377644 621.76611328 30.64575195 C623.46348836 16.25719099 626.74599752 7.52503995 638.13671875 -1.6171875 C644.61506947 -5.72540991 653.00437202 -4.87905356 660.3359375 -4.171875 C664.27578776 -3.2864036 667.7119569 -1.937122 671.3359375 -0.171875 C672.23699219 0.25222656 673.13804687 0.67632813 674.06640625 1.11328125 C681.28653595 4.76917203 687.2395454 9.55079016 693.3359375 14.828125 C694.04621094 15.40433594 694.75648438 15.98054688 695.48828125 16.57421875 C701.25932235 21.33961308 705.73382366 26.95487822 710.3359375 32.828125 C711.14160156 33.80652344 711.94726562 34.78492188 712.77734375 35.79296875 C719.81311872 44.5243765 725.21377003 53.86934644 730.3359375 63.828125 C730.83287109 64.79105469 730.83287109 64.79105469 731.33984375 65.7734375 C751.67474754 105.76257884 756.59046446 152.75279651 750.3359375 196.828125 C750.23941895 197.55499512 750.14290039 198.28186523 750.04345703 199.03076172 C743.68422444 246.07237553 722.71251165 292.12512451 684.3984375 321.578125 C678.2427889 326.00923392 671.91538276 330.05670632 665.3359375 333.828125 C664.75956543 334.16730957 664.18319336 334.50649414 663.58935547 334.85595703 C648.26169725 343.75629256 630.93975283 347.80415031 613.3359375 348.828125 C613.1709375 349.983125 613.0059375 351.138125 612.8359375 352.328125 C610.33331884 363.54553631 603.82345819 374.26848818 596.3359375 382.828125 C595.82933594 383.47652344 595.32273437 384.12492187 594.80078125 384.79296875 C585.70716845 396.07619839 572.2690642 405.35045597 558.0234375 408.203125 C552.68811432 409.4131983 550.66043465 411.04688662 547.41015625 415.328125 C528.34282444 438.30946655 492.0817555 458.0789614 463.3359375 463.828125 C463.3359375 469.108125 463.3359375 474.388125 463.3359375 479.828125 C470.43525241 479.90793549 477.53141569 479.92843304 484.63110352 479.89526367 C487.04324608 479.8921917 489.45546542 479.90499787 491.86743164 479.93432617 C495.34663454 479.97382177 498.82155932 479.9551923 502.30078125 479.92578125 C503.36989243 479.95035904 504.4390036 479.97493683 505.54051208 480.0002594 C511.75641595 479.88243879 514.89348365 478.92564298 519.34985352 474.46655273 C520.6854973 472.92640922 522.01468505 471.38063211 523.3359375 469.828125 C524.5837162 468.69797027 525.85091681 467.58830456 527.1484375 466.515625 C530.72492565 463.45312317 534.02983549 460.17532213 537.3359375 456.828125 C541.18860614 452.92768614 545.09883379 449.21290847 549.28515625 445.66796875 C551.38104548 443.7876567 553.34072456 441.80263303 555.29980469 439.78125 C563.03121946 431.81976545 571.03412792 424.11841246 582.5859375 423.453125 C590.16316358 423.65722537 597.30071703 426.81511441 602.796875 432.01171875 C607.87400331 438.00376105 610.18372352 444.25716604 609.7421875 452.10546875 C607.55239066 466.78131875 594.99345858 476.33821781 584.98803711 486.30639648 C583.2688508 488.02019733 581.55511167 489.73931582 579.84179688 491.45898438 C574.65589609 496.64764661 569.46943834 501.7689424 563.86303711 506.50927734 C562.49663351 507.68934325 561.22089054 508.9725153 559.9609375 510.265625 C558.3359375 511.828125 558.3359375 511.828125 556.3359375 511.828125 C556.3359375 512.488125 556.3359375 513.148125 556.3359375 513.828125 C553.75813849 516.16743608 550.85240052 518.11666056 548.0234375 520.140625 C547.20343262 520.73004883 546.38342773 521.31947266 545.53857422 521.92675781 C536.4518829 528.33520993 528.05722804 532.96293946 516.73144531 532.94165039 C515.75033531 532.94186943 515.75033531 532.94186943 514.74940491 532.9420929 C512.59592324 532.94139841 510.44252898 532.93362783 508.2890625 532.92578125 C506.79262336 532.92391542 505.29618362 532.92249229 503.79974365 532.92149353 C499.86735335 532.91768135 495.93500018 532.90786217 492.00262451 532.89678955 C487.98743187 532.88654749 483.9722332 532.88198992 479.95703125 532.87695312 C472.08331633 532.86623872 464.20963154 532.84917791 456.3359375 532.828125 C456.28695312 533.39660156 456.23796875 533.96507812 456.1875 534.55078125 C455.70450669 539.53893629 454.85955587 544.05412078 453.3359375 548.828125 C454.16564056 548.81924255 454.99534363 548.81036011 455.85018921 548.8012085 C463.70543758 548.72074655 471.56054566 548.66000101 479.4161129 548.62087631 C483.45385835 548.60008496 487.4912606 548.57192427 491.52880859 548.52636719 C495.43216912 548.48260454 499.3352015 548.45892448 503.2387886 548.44861603 C504.72101627 548.44127875 506.2032279 548.42695199 507.68531418 548.40520477 C520.5428617 548.22420606 529.35412468 550.12609777 538.78515625 559.17578125 C547.70715003 568.45301521 555.28935297 578.65500979 562.84765625 589.05078125 C565.54958247 592.76658308 568.30039049 596.44045114 571.08154297 600.09716797 C577.17656695 608.12297527 582.97288462 616.29355022 588.3359375 624.828125 C588.70154785 625.40191895 589.0671582 625.97571289 589.44384766 626.56689453 C594.06130835 633.92907352 596.98132494 640.06610244 595.3359375 648.828125 C593.42785023 656.02734996 589.22160463 661.34814125 583.3359375 665.828125 C577.44878496 669.14548873 572.04381287 670.6799187 565.3359375 669.828125 C554.38171436 666.56310964 547.64471557 658.43371596 541.2109375 649.453125 C536.38177404 642.85924966 531.45714995 636.40836743 526.2109375 630.140625 C518.58521022 621.01315603 510.9390414 611.73278084 504.3359375 601.828125 C501.85528957 601.51168951 499.61781763 601.39068148 497.13232422 601.39575195 C496.0199791 601.38046448 496.0199791 601.38046448 494.88516235 601.36486816 C492.42857424 601.33462001 489.97237525 601.32545453 487.515625 601.31640625 C485.81453137 601.29956826 484.11345025 601.28141922 482.41238403 601.26200867 C477.93092762 601.21440667 473.4495219 601.18466352 468.96789551 601.15856934 C464.39646386 601.12881505 459.8252071 601.08226723 455.25390625 601.03710938 C446.28134129 600.95096037 437.30874045 600.88366688 428.3359375 600.828125 C428.6246875 601.44300781 428.9134375 602.05789063 429.2109375 602.69140625 C429.5821875 603.49964844 429.9534375 604.30789063 430.3359375 605.140625 C430.7071875 605.94113281 431.0784375 606.74164062 431.4609375 607.56640625 C432.3359375 609.828125 432.3359375 609.828125 432.3359375 612.828125 C433.50511719 612.92609375 434.67429687 613.0240625 435.87890625 613.125 C442.90075072 613.9090123 449.76228925 615.53862449 456.6484375 617.078125 C457.35536743 617.23529999 458.06229736 617.39247498 458.79064941 617.55441284 C462.34393396 618.34501915 465.89572916 619.1418657 469.44580078 619.94677734 C471.82337063 620.48543852 474.20176063 621.02051567 476.58154297 621.54931641 C491.22682064 624.81957284 503.65137894 627.66079993 512.3359375 640.828125 C514.91780527 645.42122643 517.20935934 650.13072535 519.4609375 654.890625 C519.77865112 655.55354553 520.09636475 656.21646606 520.42370605 656.8994751 C547.30908295 713.05584218 547.30908295 713.05584218 542.38671875 727.640625 C538.24367797 736.42334867 532.45830657 741.51461875 523.3359375 744.828125 C516.28962425 746.09103206 509.71746071 744.14447166 503.49609375 740.85546875 C496.62782786 736.01186174 493.72612083 727.21046126 490.3359375 719.828125 C489.36024162 717.73917834 488.38362121 715.65066334 487.40625 713.5625 C484.34638343 707.00084477 481.33043813 700.41983969 478.3359375 693.828125 C477.9332666 692.9427002 477.5305957 692.05727539 477.11572266 691.14501953 C476.09775893 688.89703507 475.08898909 686.6452955 474.0859375 684.390625 C473.798396 683.75318359 473.51085449 683.11574219 473.21459961 682.45898438 C472.00772486 679.7104813 471.3359375 677.87171982 471.3359375 674.828125 C470.56121094 674.71082031 469.78648437 674.59351563 468.98828125 674.47265625 C464.25497255 673.63736648 459.58388732 672.58406019 454.8984375 671.515625 C453.92575928 671.29487305 452.95308105 671.07412109 451.95092773 670.84667969 C445.09180743 669.27325329 438.29861484 667.53947294 431.52734375 665.625 C428.12359454 664.77510424 424.82993114 664.15542124 421.3359375 663.828125 C419.37162345 665.12077199 419.37162345 665.12077199 418.3359375 666.828125 C418.76712891 667.89546875 418.76712891 667.89546875 419.20703125 668.984375 C420.30646215 671.75387567 421.36596957 674.53300268 422.3984375 677.328125 C422.74003906 678.2459375 423.08164062 679.16375 423.43359375 680.109375 C427.16664104 691.356998 425.73455092 703.03191178 421.046875 713.78515625 C418.06801052 719.60748227 414.6141508 724.84225774 409.3359375 728.828125 C408.6759375 728.828125 408.0159375 728.828125 407.3359375 728.828125 C408.2640625 730.560625 408.2640625 730.560625 409.2109375 732.328125 C413.91836492 741.87652388 414.98744622 752.06171368 411.8984375 762.328125 C411.38058193 763.82915564 410.86000056 765.32925033 410.3359375 766.828125 C409.98762688 768.15762438 409.64919609 769.48993296 409.3359375 770.828125 C409.83480469 771.13363281 410.33367188 771.43914063 410.84765625 771.75390625 C431.5868273 784.97186985 449.15138249 803.43601564 454.796875 827.91015625 C456.85363831 839.04350548 453.58942644 848.54160873 447.3359375 857.828125 C436.32897151 871.5938702 416.21113079 877.78826647 399.3359375 879.828125 C386.15729133 880.93308306 372.44938129 879.93812963 360.6484375 873.453125 C357.55984826 871.46885601 357.55984826 871.46885601 355.01171875 872.54296875 C354.12871094 872.96707031 353.24570312 873.39117188 352.3359375 873.828125 C351.36398437 874.29089844 350.39203125 874.75367188 349.390625 875.23046875 C348.34132813 875.73707031 347.29203125 876.24367188 346.2109375 876.765625 C329.13750166 884.56789903 312.05138763 885.07505222 294.3359375 878.828125 C291.30037947 877.38758208 288.43320599 875.85362353 285.5703125 874.09765625 C283.35878506 872.84110657 281.86516659 872.05894785 279.3359375 871.828125 C276.90912264 872.69910678 276.90912264 872.69910678 274.3984375 874.078125 C255.44383317 883.06716457 234.12770268 881.05098321 214.625 874.69140625 C201.51316888 869.74650066 191.46523847 861.84861981 184.5234375 849.640625 C180.64482414 840.45443547 180.7460357 828.18463581 184.12744141 818.83666992 C192.36960985 798.70103675 208.45210147 781.56599254 227.3359375 770.828125 C226.9028125 769.43013672 226.9028125 769.43013672 226.4609375 768.00390625 C222.94769478 756.17015451 221.3479702 745.83485313 226.55859375 734.16796875 C227.46131281 731.45073903 227.47939391 730.43353481 226.3359375 727.828125 C224.65270841 725.75111853 224.65270841 725.75111853 222.5859375 723.703125 C213.92237317 714.21667732 210.81168375 703.40555108 211.08203125 690.69921875 C211.7666212 682.95808628 213.46684676 675.95375529 218.3359375 669.828125 C218.9959375 668.838125 219.6559375 667.848125 220.3359375 666.828125 C219.6965625 666.56 219.0571875 666.291875 218.3984375 666.015625 C216.3359375 664.828125 216.3359375 664.828125 215.3359375 661.828125 C214.38847656 662.1981665 214.38847656 662.1981665 213.421875 662.57568359 C205.84625064 665.44246796 198.19922869 667.53400642 190.3359375 669.453125 C188.54542969 669.90171875 188.54542969 669.90171875 186.71875 670.359375 C179.62841699 672.11256456 172.5408089 673.62792576 165.3359375 674.828125 C165.20413086 675.56861084 165.07232422 676.30909668 164.93652344 677.07202148 C164.39851534 679.54095376 163.71693316 681.61188012 162.7265625 683.92578125 C162.39052002 684.7137207 162.05447754 685.50166016 161.70825195 686.31347656 C161.1527063 687.58916504 161.1527063 687.58916504 160.5859375 688.890625 C160.19688232 689.7887793 159.80782715 690.68693359 159.40698242 691.61230469 C156.17356111 699.01834647 152.86180221 706.38955273 149.49279785 713.73483276 C148.66765088 715.53618096 147.84888425 717.34044748 147.03027344 719.14477539 C138.73675315 737.0726615 138.73675315 737.0726615 131.6484375 741.328125 C130.90207031 741.7921875 130.15570313 742.25625 129.38671875 742.734375 C123.80591274 745.71080487 117.65612869 745.75413208 111.6328125 744.07421875 C103.34360403 740.9099251 98.36623447 736.7647098 94.3359375 728.828125 C91.21088812 718.7532131 93.64654026 709.0936687 97.5859375 699.703125 C98.03050293 698.59855957 98.47506836 697.49399414 98.93310547 696.35595703 C124.5979785 633.30867289 124.5979785 633.30867289 139.53417969 626.88232422 C141.90995297 626.10355866 144.28825421 625.44556153 146.7109375 624.828125 C147.60578857 624.58666748 148.50063965 624.34520996 149.42260742 624.09643555 C191.939663 612.828125 191.939663 612.828125 204.3359375 612.828125 C204.52929688 612.21324219 204.72265625 611.59835937 204.921875 610.96484375 C205.31246094 609.75248047 205.31246094 609.75248047 205.7109375 608.515625 C205.96617187 607.71511719 206.22140625 606.91460938 206.484375 606.08984375 C207.3359375 603.828125 207.3359375 603.828125 209.3359375 600.828125 C199.53841738 600.54012118 189.7443261 600.35197132 179.94264793 600.28665733 C175.38921036 600.25327448 170.84142007 600.18723995 166.29003906 600.04296875 C145.45803505 598.32289534 145.45803505 598.32289534 127.00585938 605.61889648 C123.79689109 609.30274342 121.47782474 613.28224354 119.38922119 617.68481445 C118.02517575 620.46048924 116.24709155 622.70934013 114.2578125 625.06640625 C113.20049091 626.42445587 112.14319784 627.7825277 111.0859375 629.140625 C110.51077393 629.87933838 109.93561035 630.61805176 109.34301758 631.37915039 C106.30063403 635.29006008 103.27086114 639.20987217 100.26245117 643.14697266 C98.29677192 645.71494378 96.31485059 648.27034618 94.3359375 650.828125 C93.57796875 651.8284375 92.82 652.82875 92.0390625 653.859375 C86.92105218 660.42454686 81.79636632 665.09791059 74.3359375 668.828125 C64.27777295 669.63330615 57.40959801 669.07584077 49.6484375 662.578125 C45.76202439 657.95644454 41.78998522 653.03344391 41.3359375 646.828125 C41.28783936 646.18069336 41.23974121 645.53326172 41.19018555 644.86621094 C40.95777292 639.23679695 41.9931166 635.34215848 44.9609375 630.515625 C45.35410156 629.84756836 45.74726563 629.17951172 46.15234375 628.49121094 C54.26443638 615.01009651 63.77666635 602.30784126 73.3359375 589.828125 C74.37671969 588.45604584 75.41705069 587.08362436 76.45703125 585.7109375 C102.77346985 551.04043925 102.77346985 551.04043925 116.3359375 548.828125 C118.57349235 548.71555298 120.8137649 548.65233443 123.05395508 548.62280273 C123.70817444 548.61290314 124.3623938 548.60300354 125.03643799 548.59280396 C127.18441228 548.56138586 129.33240863 548.53651008 131.48046875 548.51171875 C132.97548475 548.49113218 134.47049515 548.47013527 135.96549988 548.44874573 C139.88959198 548.39370085 143.81373508 548.34421447 147.73791504 548.29589844 C151.74654651 548.24555456 155.75510444 548.18993593 159.76367188 548.13476562 C167.62103311 548.02739929 175.47845723 547.92639485 183.3359375 547.828125 C181.8509375 540.403125 181.8509375 540.403125 180.3359375 532.828125 C178.2772644 532.83247559 178.2772644 532.83247559 176.17700195 532.83691406 C162.6644754 532.85695822 149.15347963 532.82717512 135.64233398 532.62060547 C133.53988347 532.59196935 131.43731674 532.57097345 129.3347168 532.55712891 C126.22391603 532.53563723 123.11433587 532.48910452 120.00390625 532.4375 C118.6146418 532.43565704 118.6146418 532.43565704 117.1973114 532.43377686 C107.75112932 532.22354555 100.23786726 529.03178237 92.8984375 523.203125 C91.41537109 522.03910156 91.41537109 522.03910156 89.90234375 520.8515625 C89.05542969 520.18382812 88.20851562 519.51609375 87.3359375 518.828125 C86.3459375 518.168125 85.3559375 517.508125 84.3359375 516.828125 C84.3359375 516.168125 84.3359375 515.508125 84.3359375 514.828125 C83.75038086 514.56402832 83.16482422 514.29993164 82.56152344 514.02783203 C80.24837347 512.78092342 78.63018861 511.43649055 76.7265625 509.6328125 C76.05818359 509.00310547 75.38980469 508.37339844 74.70117188 507.72460938 C74.00314453 507.05751953 73.30511719 506.39042969 72.5859375 505.703125 C71.86728516 505.02314453 71.14863281 504.34316406 70.40820312 503.64257812 C66.22958986 499.67650104 62.11466298 495.65771489 58.0859375 491.5390625 C55.45435151 488.96621727 52.63986642 486.61791237 49.8046875 484.2734375 C49.32 483.79648437 48.8353125 483.31953125 48.3359375 482.828125 C48.3359375 482.168125 48.3359375 481.508125 48.3359375 480.828125 C47.6759375 480.828125 47.0159375 480.828125 46.3359375 480.828125 C44.85546875 479.359375 44.85546875 479.359375 43.1484375 477.328125 C41.28743518 475.12206184 39.43722313 472.93595199 37.4609375 470.83203125 C33.13846659 466.20214323 30.60870431 461.71776803 28.3359375 455.828125 C28.0059375 455.168125 27.6759375 454.508125 27.3359375 453.828125 C26.40767134 445.60633905 28.70512628 439.64649734 33.3359375 432.828125 C38.83687195 427.18010674 44.6029468 423.91573773 52.5234375 423.453125 C63.69571438 423.80928819 70.64594965 429.28078448 78.3359375 436.828125 C79.57794362 437.8999585 80.82760471 438.96300691 82.0859375 440.015625 C86.68863305 444.01024085 90.91341971 448.38051163 95.19775391 452.70922852 C98.76181913 456.29674783 102.39101342 459.70718903 106.2578125 462.96875 C109.75717858 466.09976175 113.0203219 469.47305997 116.30126953 472.83056641 C119.04245953 475.68943287 119.04245953 475.68943287 122.3359375 477.828125 C122.3359375 478.488125 122.3359375 479.148125 122.3359375 479.828125 C139.1659375 479.828125 155.9959375 479.828125 173.3359375 479.828125 C173.3359375 474.548125 173.3359375 469.268125 173.3359375 463.828125 C172.05976563 463.58320313 170.78359375 463.33828125 169.46875 463.0859375 C164.09947812 461.88787019 159.23498096 459.91265929 154.2109375 457.703125 C152.8328894 457.10262329 152.8328894 457.10262329 151.42700195 456.48999023 C143.49978425 452.9880704 135.83096235 449.17644505 128.3359375 444.828125 C127.69881836 444.46138672 127.06169922 444.09464844 126.40527344 443.71679688 C115.54441634 437.39600264 105.89599411 429.95784561 96.3359375 421.828125 C95.69503174 421.29598389 95.05412598 420.76384277 94.39379883 420.21557617 C93.77142334 419.69455322 93.14904785 419.17353027 92.5078125 418.63671875 C91.95061523 418.17322021 91.39341797 417.70972168 90.81933594 417.23217773 C89.3359375 415.828125 89.3359375 415.828125 87.1484375 412.640625 C83.51493141 409.00711891 80.51752912 408.69665542 75.59375 407.65625 C58.70940155 403.36430531 43.06292077 388.82977861 33.8984375 374.328125 C23.86362193 356.75121874 23.86362193 356.75121874 24.3359375 348.828125 C22.82 348.9209375 22.82 348.9209375 21.2734375 349.015625 C3.2745642 348.95224869 -14.13413039 341.23296577 -29.6640625 332.828125 C-30.6025 332.3228125 -31.5409375 331.8175 -32.5078125 331.296875 C-42.97410653 325.33506194 -51.88150797 316.99177468 -60.6640625 308.828125 C-61.32921875 308.21710938 -61.994375 307.60609375 -62.6796875 306.9765625 C-87.22562527 283.52820732 -102.87075371 249.68555732 -109.6640625 216.828125 C-110.07398438 214.93320312 -110.07398438 214.93320312 -110.4921875 213 C-111.33430887 208.96025102 -112.02882159 204.90512982 -112.6640625 200.828125 C-112.82285889 199.83522461 -112.82285889 199.83522461 -112.98486328 198.82226562 C-114.90815754 186.08158418 -114.87395825 173.24498395 -114.9140625 160.390625 C-114.91932953 159.5234082 -114.92459656 158.65619141 -114.93002319 157.76269531 C-114.97780474 147.57571755 -114.56915525 137.87159253 -112.6640625 127.828125 C-112.44485361 126.41232418 -112.23058095 124.99574134 -112.0234375 123.578125 C-105.01653538 80.45872731 -84.14824154 34.15260662 -48.04638672 7.64013672 C-33.88125033 -2.36701439 -16.2592418 -10.44888212 0 0 Z " fill="#030304" transform="translate(128.6640625,11.171875)"/>
<path d="M0 0 C5.87974805 1.24379286 9.58815756 5.30146017 12.953125 10.1328125 C14.87414818 13.30541138 16.68805697 16.48767569 18.26171875 19.84765625 C20.00047899 23.42055176 20.87916891 24.55265233 24.6875 25.9375 C28.29338745 26.00816607 28.29338745 26.00816607 30.75 23.8125 C31.6143681 22.79643816 32.44313114 21.74979776 33.25 20.6875 C33.83007812 19.93855469 34.41015625 19.18960938 35.0078125 18.41796875 C36.22002651 16.84817697 37.41883851 15.2679097 38.6015625 13.67578125 C40.97218567 10.81642771 42.79418412 9.77687566 46.4375 9.0625 C52.12333165 9.99460355 54.67364306 13.35784089 58.25 17.6875 C59.30166305 19.18050846 60.344054 20.6801116 61.375 22.1875 C63.63541116 25.30750502 63.63541116 25.30750502 67.375 26.5 C71.32527792 25.38361711 72.05370141 24.18785088 74.25 20.6875 C75.23666556 18.87907121 76.2150988 17.06613863 77.1875 15.25 C80.40791759 9.2380144 83.6589046 3.42039322 90.25 0.6875 C93.28275236 0.80881009 95.33420684 1.10432983 97.90625 2.7421875 C100.03039823 5.81726255 99.69031851 9.08442146 99.625 12.6875 C99.61992432 13.44772461 99.61484863 14.20794922 99.60961914 14.99121094 C99.4892481 20.43036946 98.65257299 25.24387406 96.80859375 30.390625 C96.08937018 33.34799184 96.18531209 34.81766222 97.25 37.6875 C99.11739525 39.71638383 100.96626531 41.5307963 103 43.375 C114.80803916 54.65571855 123.69342803 68.35491852 131.24121094 82.76367188 C132.21899399 84.62836947 133.22164121 86.47795213 134.2265625 88.328125 C171.08133508 157.63710031 183.68591612 252.21224763 166.25 328.6875 C165.99863281 329.82251953 165.99863281 329.82251953 165.7421875 330.98046875 C161.30224662 350.734443 152.2401867 370.77933064 135.3046875 382.7734375 C113.85113186 396.01073779 85.63744197 401.77845724 60.671875 401.890625 C59.6652179 401.89632507 58.65856079 401.90202515 57.62139893 401.90789795 C55.49337805 401.91730906 53.36534286 401.92386639 51.23730469 401.92773438 C48.05115696 401.93734568 44.86568166 401.96836742 41.6796875 402 C10.26452817 402.16211338 -28.38827052 397.69801839 -51.85546875 374.80078125 C-80.71117192 344.95366972 -80.51849537 294.29195461 -79.96875 255.5078125 C-79.32752684 219.54137609 -74.31607873 185.294863 -64.75 150.6875 C-64.28037842 148.97506104 -64.28037842 148.97506104 -63.80126953 147.22802734 C-53.43041175 110.01042814 -36.41856448 63.24062341 -4.875 38.42578125 C-2.28652658 35.7374195 -2.28652658 35.7374195 -3.13671875 31.71875 C-3.54653098 30.20170815 -3.98151281 28.69130774 -4.4375 27.1875 C-6.36407279 19.83271864 -8.30406041 12.29782522 -6.75 4.6875 C-4.54828685 1.95386035 -3.42460704 0.85615176 0 0 Z " fill="#3C9EFD" transform="translate(400.75,216.3125)"/>
<path d="M0 0 C22.3092651 10.21473505 38.9496395 33.28595496 50.58203125 54.125 C51.49082031 55.73568359 51.49082031 55.73568359 52.41796875 57.37890625 C62.18297394 75.73799971 67.24449138 95.71571507 70.58203125 116.125 C70.85031738 117.70619629 70.85031738 117.70619629 71.12402344 119.31933594 C71.68903054 124.01407516 71.78171079 128.63479256 71.8203125 133.359375 C71.83015167 134.34214417 71.83999084 135.32491333 71.85012817 136.33746338 C72.08856612 166.35109841 70.22394017 193.46388822 60.58203125 222.125 C60.34790527 222.8351123 60.1137793 223.54522461 59.87255859 224.27685547 C54.12888283 241.3019855 44.2148221 257.49853902 32.58203125 271.125 C32.15599609 271.62789551 31.72996094 272.13079102 31.29101562 272.64892578 C18.49616974 287.61889547 3.53921191 298.90328257 -14.41796875 307.125 C-15.14628906 307.47175781 -15.87460937 307.81851562 -16.625 308.17578125 C-42.11574435 319.4229751 -72.46351488 317.7654146 -98.13427734 308.10253906 C-108.75920255 303.76981353 -118.33333538 298.11215185 -127.41796875 291.125 C-128.08828125 290.62613281 -128.75859375 290.12726563 -129.44921875 289.61328125 C-151.46667263 272.14943715 -161.43281438 240.71020328 -164.68946838 213.88897705 C-165.3049275 208.0584673 -165.58998959 202.29858477 -165.62109375 196.4375 C-165.62810806 195.54507095 -165.63512238 194.65264191 -165.64234924 193.73316956 C-165.6597664 190.8637278 -165.66620287 187.9944927 -165.66796875 185.125 C-165.66864349 184.14312714 -165.66931824 183.16125427 -165.67001343 182.14962769 C-165.65308667 166.63158439 -165.17414412 151.43860595 -162.41796875 136.125 C-162.25699707 135.22990723 -162.09602539 134.33481445 -161.93017578 133.41259766 C-155.15919502 97.78852306 -137.76820927 59.48508923 -107.546875 37.78125 C-104.72762923 35.98663334 -102.91519675 35.09257209 -99.54296875 35.3125 C-97.41796875 36.125 -97.41796875 36.125 -96.41796875 37.125 C-96.50613569 38.95120567 -96.66060519 40.77422421 -96.83984375 42.59375 C-97.54544451 50.94260024 -97.66051939 59.25148589 -97.66796875 67.625 C-97.66897583 68.41636353 -97.66998291 69.20772705 -97.67102051 70.02307129 C-97.66023018 82.60268673 -97.02630407 94.78090143 -94.41796875 107.125 C-94.26811523 107.85541504 -94.11826172 108.58583008 -93.96386719 109.33837891 C-91.06929922 123.06453085 -86.22251148 140.40091155 -75.41796875 150.125 C-76.72361468 154.0419378 -78.70046848 155.20419438 -81.91796875 157.75 C-82.91828125 158.54664063 -83.91859375 159.34328125 -84.94921875 160.1640625 C-85.76390625 160.81117188 -86.57859375 161.45828125 -87.41796875 162.125 C-88.79172244 163.28145826 -88.79172244 163.28145826 -88.66796875 166.4375 C-88.63413458 170.00247332 -88.63413458 170.00247332 -87.35546875 172.5625 C-85.41130016 174.37707261 -85.41130016 174.37707261 -82.29296875 174.75 C-76.93219873 173.88535967 -73.65736356 171.39539028 -69.41796875 168.125 C-68.81984375 167.691875 -68.22171875 167.25875 -67.60546875 166.8125 C-41.90670468 146.82457239 -36.99152918 107.40872954 -31.27880859 77.57958984 C-30.73456517 74.742638 -30.17468573 71.90992961 -29.59228516 69.08056641 C-27.92306503 60.9560529 -26.54893727 52.84108409 -25.41796875 44.625 C-25.24845703 43.43245605 -25.07894531 42.23991211 -24.90429688 41.01123047 C-24.0791971 35.15224368 -23.30678786 29.29287196 -22.63671875 23.4140625 C-22.51425781 22.37185547 -22.39179687 21.32964844 -22.265625 20.25585938 C-22.04036473 18.30824387 -21.82856312 16.35900554 -21.6328125 14.40820312 C-20.85962988 7.76764098 -19.35643462 3.7276412 -14.23046875 -0.8125 C-9.25617963 -2.69167589 -4.91993634 -1.780397 0 0 Z " fill="#3D9EFD" transform="translate(790.41796875,25.875)"/>
<path d="M0 0 C4.53530598 2.18043557 6.4635926 4.27052718 8.32821655 8.909729 C9.59845058 12.86209394 10.07782471 16.91800537 10.61328125 21.0234375 C10.74795807 21.9894841 10.88263489 22.9555307 11.02139282 23.95085144 C11.30943389 26.01847082 11.59352215 28.08664408 11.87399292 30.15530396 C12.61599866 35.6034097 13.39806492 41.04573997 14.1796875 46.48828125 C14.33467209 47.56977951 14.48965668 48.65127777 14.64933777 49.76554871 C21.42935113 99.79630996 21.42935113 99.79630996 39.125 146.625 C39.50479004 147.32810303 39.88458008 148.03120605 40.27587891 148.75561523 C46.36617272 159.61356329 54.77770535 170.16780748 66 176 C69.23223315 176.86229039 70.6138539 176.71287286 74 176 C76.62716577 174.54002013 76.62716577 174.54002013 78 172 C78.66887173 169.17123097 78.66887173 169.17123097 78 166 C76.12467058 163.53320903 73.86336945 161.61494725 71.5 159.625 C70.87996094 159.07972656 70.25992188 158.53445312 69.62109375 157.97265625 C68.09382287 156.63335717 66.54858528 155.31459575 65 154 C65.78608476 150.44512412 67.08373635 148.240781 69.1875 145.25 C83.49542039 123.17240973 86.20087028 94.19328576 86.125 68.625 C86.12857292 67.28515532 86.13247771 65.94531148 86.13671875 64.60546875 C86.13542969 63.32542969 86.13414062 62.04539063 86.1328125 60.7265625 C86.13112061 59.00300537 86.13112061 59.00300537 86.12939453 57.24462891 C86.00312797 54.07843533 85.56597507 51.11369198 85 48 C84.9141879 46.23075635 84.86962423 44.4588153 84.875 42.6875 C84.87242187 41.82511719 84.86984375 40.96273437 84.8671875 40.07421875 C85 38 85 38 86 37 C94.96120067 36.80519129 101.83921906 43.76783044 108 49.625 C128.6588689 71.2575451 141.47210754 98.33173549 148.625 127.125 C148.81940674 127.89263672 149.01381348 128.66027344 149.21411133 129.45117188 C153.21942913 146.39085988 154.51654929 163.31774622 154.44604492 180.68310547 C154.43752351 183.8662172 154.4664672 187.04753172 154.49804688 190.23046875 C154.54580996 204.52801016 152.94052366 218.01907681 150 232 C149.83990952 232.77498337 149.67981903 233.54996674 149.51487732 234.34843445 C146.02822259 251.06894918 139.67214821 266.59563515 129 280 C127.93652344 281.33611328 127.93652344 281.33611328 126.8515625 282.69921875 C118.36121608 292.70679314 107.54647361 299.92675976 96 306 C94.52080078 306.78697266 94.52080078 306.78697266 93.01171875 307.58984375 C75.80819104 315.84501639 55.88331146 318.28815116 37 317 C36.29053223 316.95456055 35.58106445 316.90912109 34.85009766 316.86230469 C5.32945871 314.71459334 -19.92403366 298.80555472 -39.5625 277.25 C-73.58720523 236.6024811 -86.33660523 185.26531215 -82.78173828 132.77734375 C-82.15459804 125.80275072 -81.18075145 118.90112544 -80 112 C-79.8443457 111.08976074 -79.68869141 110.17952148 -79.52832031 109.24169922 C-72.91069387 72.52774174 -54.01218676 31.55662258 -23.00146484 9.23266602 C-7.97100776 -1.18089004 -7.97100776 -1.18089004 0 0 Z " fill="#3E9FFD" transform="translate(115,24)"/>
<path d="M0 0 C2.65268821 1.02889193 5.24020003 2.1137614 7.8125 3.33203125 C26.09976015 11.82574644 46.2088363 14.21098293 66 17 C67.11568359 17.176521 68.23136719 17.35304199 69.38085938 17.53491211 C76.09411846 18.39761843 82.86527578 18.29124492 89.625 18.3125 C90.41945526 18.31511841 91.21391052 18.31773682 92.03244019 18.32043457 C107.62168525 18.32590277 122.64217093 16.77845898 138 14 C138.93134766 13.8345166 139.86269531 13.6690332 140.82226562 13.49853516 C154.18762671 11.0650869 168.79783972 8.36841165 180.30078125 0.8203125 C182 0 182 0 185 1 C186.3515625 3.546875 186.3515625 3.546875 187.625 6.75 C188.05039062 7.79671875 188.47578125 8.8434375 188.9140625 9.921875 C192.06517068 18.85379314 192.2680892 27.95228603 188.3203125 36.6484375 C181.15021962 49.41883962 168.74837798 53.37815563 155.45019531 57.31542969 C112.42161008 69.33736602 48.46364139 72.58315618 8 50 C-0.46490187 44.38331545 -4.60407471 37.83653751 -7 28 C-8.60903136 18.36030765 -5.20905816 8.07478643 0 0 Z " fill="#3B9CFB" transform="translate(355,617)"/>
<path d="M0 0 C1.98217773 0.81054688 1.98217773 0.81054688 3.00927734 2.54296875 C4.74612452 8.19065073 5.56264515 13.40166119 5.54467773 19.31054688 C5.54105225 20.55892334 5.54105225 20.55892334 5.53735352 21.83251953 C5.33507727 28.5631626 3.90071927 33.01695674 -1.01782227 37.81054688 C-2.34813477 39.17179688 -2.34813477 39.17179688 -3.70532227 40.56054688 C-13.83385376 48.24974618 -27.38528336 51.07943918 -39.58032227 53.43554688 C-40.66506836 53.65210938 -41.74981445 53.86867188 -42.86743164 54.09179688 C-51.98700605 55.88581151 -60.73168673 56.96964831 -70.01782227 57.04882812 C-71.43563744 57.06351891 -71.43563744 57.06351891 -72.88209534 57.07850647 C-111.91858938 57.3999583 -111.91858938 57.3999583 -130.01782227 52.81054688 C-130.95319824 52.58560547 -131.88857422 52.36066406 -132.85229492 52.12890625 C-146.23928745 48.86038209 -159.21187698 45.18489287 -168.01782227 33.81054688 C-172.44666359 25.95292517 -172.09708607 15.7590474 -170.51391602 7.03320312 C-169.83032227 4.87304688 -169.83032227 4.87304688 -168.01782227 1.81054688 C-163.53758245 0.07862114 -159.95331267 1.53275823 -155.64282227 3.06054688 C-147.84015934 5.65694713 -140.13663332 7.42547074 -132.01782227 8.81054688 C-130.30852539 9.10251953 -130.30852539 9.10251953 -128.56469727 9.40039062 C-113.79251123 11.7106526 -98.87542109 11.99731287 -83.95166016 11.99584961 C-81.45336145 11.9980486 -78.95549751 12.01634323 -76.45727539 12.03515625 C-66.12991943 12.07167156 -56.23314795 11.34881462 -46.01782227 9.81054688 C-44.9241333 9.6591626 -43.83044434 9.50777832 -42.70361328 9.35180664 C-30.4211098 7.63588986 -11.63274359 -1.0921971 0 0 Z " fill="#3B9CFB" transform="translate(530.017822265625,686.189453125)"/>
<path d="M0 0 C0.60658447 0.18755859 1.21316895 0.37511719 1.83813477 0.56835938 C50.11232696 15.30063903 99.78237379 14.18844025 148 0 C151.79858402 6.9640707 152.25498908 14.12848324 150.2734375 21.8203125 C148.39399179 26.93912804 146.27958586 30.49852066 142 34 C141.48179687 34.46792969 140.96359375 34.93585937 140.4296875 35.41796875 C123.55548454 49.62590154 98.22327791 51.37436938 77.17358398 51.37060547 C74.46598172 51.37495425 71.76004756 51.4113267 69.05273438 51.44921875 C47.42861135 51.58782076 21.60885318 47.94521154 4.8046875 33.0546875 C-1.19898969 26.6490905 -3.54891302 20.29438329 -3.3046875 11.54296875 C-2.8155516 7.46056524 -1.49283799 3.80720632 0 0 Z " fill="#3C9DFB" transform="translate(373,749)"/>
<path d="M0 0 C3.10352253 1.05042301 4.01653459 2.02581529 5.81640625 4.8359375 C12.55596814 18.49598912 17.01035382 32.13041143 12.3125 47.3125 C7.231853 60.86089201 -1.94029498 70.70106621 -14.84765625 77.140625 C-24.69659189 81.07304939 -35.39452969 81.82234376 -45.375 77.9375 C-50.87283839 75.32898259 -55.40094121 71.94468369 -60 68 C-61.010625 67.2575 -62.02125 66.515 -63.0625 65.75 C-70.78186 59.18533651 -76.22595646 49.26356142 -80 40 C-80 39.01 -80 38.02 -80 37 C-79.32646484 36.87995605 -78.65292969 36.75991211 -77.95898438 36.63623047 C-48.07492434 31.2226729 -22.15674365 21.38338436 0 0 Z " fill="#399AFA" transform="translate(251,322)"/>
<path d="M0 0 C0.42482666 0.3707666 0.84965332 0.7415332 1.28735352 1.12353516 C12.65437737 10.96653235 24.30395672 18.78052396 38 25 C39.1859375 25.55558594 40.371875 26.11117188 41.59375 26.68359375 C54.64942818 32.57923221 67.84578289 35.47415532 82 37 C77.87684215 51.97357323 67.647005 65.51514776 54.33203125 73.625 C43.54468132 79.6810561 32.76730407 82.32663081 20.5703125 79.08984375 C14.34804892 76.62785396 9.01356507 73.41445981 4 69 C3.33355469 68.43796875 2.66710937 67.8759375 1.98046875 67.296875 C-5.4409667 60.54237543 -11.47586534 51.09707486 -12.13500977 40.91430664 C-12.79321521 25.6759947 -10.75726236 14.78560305 -2 2 C-1.34 1.34 -0.68 0.68 0 0 Z " fill="#3B9CFC" transform="translate(642,322)"/>
<path d="M0 0 C3.35763958 1.91081123 6.37176656 4.14869801 9.37890625 6.55859375 C9.99725342 7.05319092 10.61560059 7.54778809 11.25268555 8.05737305 C22.49792362 17.16764351 36.07322791 30.40145722 38.02734375 45.59375 C37.97393907 52.3494419 37.81880361 57.09965628 33 62.23046875 C21.18118787 73.4046184 5.03992172 77.1216949 -10.83178711 76.97509766 C-17.60199395 76.71917156 -24.26748982 75.58404227 -30.37109375 72.49609375 C-31.6631663 68.61987611 -30.77107809 66.96363277 -29.49609375 63.12109375 C-24.64184892 48.35468466 -25.70086771 35.75953082 -30.27734375 21.1640625 C-31.37109375 17.49609375 -31.37109375 17.49609375 -31.37109375 14.49609375 C-30.19933594 13.99980469 -29.02757812 13.50351562 -27.8203125 12.9921875 C-19.54678536 9.43040278 -11.87006263 5.9816324 -4.6328125 0.55078125 C-2.37109375 -0.50390625 -2.37109375 -0.50390625 0 0 Z " fill="#3B9BFA" transform="translate(527.37109375,796.50390625)"/>
<path d="M0 0 C2.99361396 1.42727316 5.82355513 3.0709976 8.67138672 4.76757812 C15.88575803 9.0359648 23.05750353 12.25574873 31 15 C30.04591282 20.22717974 29.04942353 25.08138354 27 30 C24.56241041 41.79934672 25.2331101 53.69933029 29.02734375 65.08203125 C29.90675688 67.72027064 30.51972595 70.26496564 31 73 C13.75873946 79.30023224 -4.25465417 78.83798654 -21.19140625 71.64453125 C-28.08862349 68.1443108 -35.05667096 63.45283317 -38 56 C-39.88932694 44.26276539 -35.48168421 35.44028285 -28.953125 26.05859375 C-20.88880174 15.71330314 -10.98415077 7.12025703 0 0 Z " fill="#3C9BFB" transform="translate(367,796)"/>
<path d="M0 0 C2.18379899 0.09084117 4.36490484 0.24729297 6.54296875 0.4296875 C14.80805458 1.05959169 23.02699523 1.15484597 31.3125 1.125 C32.38478348 1.12367065 32.38478348 1.12367065 33.47872925 1.12231445 C44.34326254 1.10653379 55.16572314 0.85333264 66 0 C66.4803318 1.58298026 66.95921612 3.16639978 67.4375 4.75 C67.70433594 5.63171875 67.97117187 6.5134375 68.24609375 7.421875 C71.17325333 17.43185077 71.9572223 30.91883236 68.21484375 40.80078125 C62.91576647 50.39364462 55.23206292 55.52084184 45 59 C33.18628612 61.51588351 21.65510113 60.92103418 11 55 C4.00568698 50.11343266 -0.28491879 45.07693971 -3 37 C-3.33 36.34 -3.66 35.68 -4 35 C-4.93824655 23.65432463 -4.70994114 11.84148603 -1 1 C-0.67 0.67 -0.34 0.34 0 0 Z " fill="#3C9CFC" transform="translate(414,816)"/>
<path d="M0 0 C5.52567895 0.96669545 7.79912326 4.64374234 11 9 C27.57205982 33.78543297 37.19395523 59.61070704 42 89 C42.17885742 90.05413086 42.35771484 91.10826172 42.54199219 92.19433594 C43.10699929 96.88907516 43.19967954 101.50979256 43.23828125 106.234375 C43.24812042 107.21714417 43.25795959 108.19991333 43.26809692 109.21246338 C43.50653487 139.22609841 41.64190892 166.33888822 32 195 C31.76587402 195.7101123 31.53174805 196.42022461 31.29052734 197.15185547 C25.54685158 214.1769855 15.63279085 230.37353902 4 244 C3.57396484 244.50289551 3.14792969 245.00579102 2.70898438 245.52392578 C-7.64771746 257.64126693 -19.24688633 267.00074001 -33 275 C-33.99 275.66 -34.98 276.32 -36 277 C-37.32 277 -38.64 277 -40 277 C-41.75 275 -41.75 275 -43 273 C-41.43027958 269.02521086 -38.86030215 266.85708733 -35.6875 264.0625 C-30.93289194 259.81146784 -26.32441188 255.44562936 -21.8125 250.9375 C-21.24813232 250.37748291 -20.68376465 249.81746582 -20.10229492 249.24047852 C-17.19270479 246.39182563 -17.19270479 246.39182563 -15 243 C-14.34 243 -13.68 243 -13 243 C-12.76410156 242.45988281 -12.52820313 241.91976562 -12.28515625 241.36328125 C-10.64584542 238.3487431 -8.58751329 235.86239916 -6.4375 233.1875 C1.53772064 223.02874407 8.16372161 211.98994017 13 200 C13.30292969 199.25476074 13.60585938 198.50952148 13.91796875 197.74169922 C35.51581385 144.21255728 35.44174402 83.81902826 13.1875 30.375 C10.03815378 22.99311748 6.5167989 15.80539988 2.79370117 8.69677734 C0 3.30667899 0 3.30667899 0 0 Z " fill="#74B8FA" transform="translate(819,53)"/>
<path d="M0 0 C47.47343707 45.57119134 59.94870851 137.60783141 61.24609375 200.3984375 C61.63470205 225.15571412 59.50578432 248.85121181 54 273 C53.83242188 273.75667969 53.66484375 274.51335937 53.4921875 275.29296875 C49.06781931 294.97765773 39.9864209 315.42575427 22.8671875 327.14453125 C17.0923421 330.6720573 17.0923421 330.6720573 14 332 C13.01 331.67 12.02 331.34 11 331 C11.78503906 329.97261719 12.57007813 328.94523437 13.37890625 327.88671875 C38.21585426 295.21922747 48.01568385 258.86267755 48.203125 217.82421875 C48.21018463 216.78913177 48.21724426 215.7540448 48.22451782 214.68759155 C48.34247144 192.28289887 48.31240278 170.20181547 45 148 C44.89582764 147.2971991 44.79165527 146.59439819 44.68432617 145.87030029 C40.22124751 115.92519099 33.81667083 86.99771813 24.25 58.25 C23.98610474 57.45663239 23.72220947 56.66326477 23.45031738 55.84585571 C18.12582106 39.90752852 11.91908298 24.98387039 3.6640625 10.33203125 C1.93204936 6.8639392 0.94180485 3.74343646 0 0 Z " fill="#79B9F8" transform="translate(513,272)"/>
<path d="M0 0 C6.0563256 3.94141825 11.94790704 8.08694448 17.81347656 12.30371094 C22.47207771 15.64436812 27.19488421 18.87286115 32 22 C31.89042969 22.86496094 31.78085937 23.72992188 31.66796875 24.62109375 C31.21958366 28.18265661 30.77533613 31.74468937 30.33398438 35.30712891 C30.09920247 37.20014379 29.86343742 39.09303688 29.62695312 40.98583984 C27.37972709 58.95150089 27.37972709 58.95150089 26 77 C19.39406649 75.18171099 13.23041012 72.98006119 7.0625 70 C5.84977417 69.41786743 5.84977417 69.41786743 4.61254883 68.82397461 C-11.9059994 60.75544033 -28.23937549 51.30022938 -42 39 C-42 38.34 -42 37.68 -42 37 C-41.40574219 36.79246094 -40.81148437 36.58492188 -40.19921875 36.37109375 C-22.67853486 29.85874002 -11.3696343 18.710292 -2 3 C-1.34 2.01 -0.68 1.02 0 0 Z " fill="#3A9BFB" transform="translate(278,380)"/>
<path d="M0 0 C2.15661911 2.76198588 3.92143519 5.56655324 5.625 8.625 C14.16291354 22.84093918 26.73758886 31.91338714 42 38 C38.54379202 43.03485433 34.12275419 45.97361463 29.125 49.3125 C28.27147949 49.88718018 27.41795898 50.46186035 26.53857422 51.05395508 C12.99837122 60.08626432 -1.21480282 67.23739025 -16 74 C-16.68594238 74.31630371 -17.37188477 74.63260742 -18.07861328 74.95849609 C-20.91247671 76.22797777 -22.85535557 77 -26 77 C-26.07516846 76.11554199 -26.15033691 75.23108398 -26.2277832 74.31982422 C-27.72983464 56.81065022 -29.378322 39.38488606 -32 22 C-23.89595808 16.59056886 -23.89595808 16.59056886 -19.8828125 13.9453125 C-13.11571895 9.47864735 -6.51710268 4.8236823 0 0 Z " fill="#3C9CFA" transform="translate(616,380)"/>
<path d="M0 0 C0.69828415 -0.0246785 1.3965683 -0.04935699 2.11601257 -0.07478333 C4.41561516 -0.14822341 6.7141635 -0.19029953 9.01464844 -0.22583008 C10.19898594 -0.24841102 10.19898594 -0.24841102 11.40724945 -0.27144814 C15.58674914 -0.34886364 19.76572128 -0.40106715 23.94580078 -0.43359375 C28.2471423 -0.47225863 32.54106698 -0.59942354 36.83984756 -0.7470808 C40.16189141 -0.84453003 43.48218577 -0.87449361 46.80553436 -0.88677406 C48.3895044 -0.90432546 49.97341647 -0.94699545 51.55597687 -1.01607323 C56.70601584 -1.22649441 61.01184751 -1.14001844 65.87402344 0.69213867 C70.87205096 5.47705513 73.72104557 12.23320506 75.87402344 18.69213867 C74.92268524 18.68912247 73.97134705 18.68610626 72.99118042 18.68299866 C64.01593497 18.65910143 55.04139047 18.67196094 46.0662365 18.7206049 C41.45213335 18.74443679 36.83875206 18.75541646 32.22460938 18.73681641 C27.76968902 18.71933451 23.31606415 18.73588459 18.86130142 18.77581596 C17.16372028 18.78509439 15.46602671 18.78220766 13.76848984 18.76683235 C4.77221954 18.3555541 4.77221954 18.3555541 -3.44769287 21.20106506 C-4.98670992 22.97073647 -6.04254648 24.62192514 -7.12597656 26.69213867 C-7.95097656 27.71952148 -8.77597656 28.7469043 -9.62597656 29.80541992 C-10.4610366 30.8704746 -11.29430233 31.93693801 -12.12597656 33.00463867 C-12.58673584 33.59365967 -13.04749512 34.18268066 -13.5222168 34.78955078 C-15.05881866 36.75551598 -16.59259908 38.72365773 -18.12597656 40.69213867 C-18.68945801 41.4146582 -19.25293945 42.13717773 -19.83349609 42.8815918 C-25.76549874 50.48899547 -31.68539547 58.10547265 -37.56347656 65.75463867 C-38.35109375 66.7781543 -39.13871094 67.80166992 -39.95019531 68.85620117 C-41.33346015 70.65916396 -42.71165853 72.4660338 -44.08300781 74.27807617 C-53.14246347 86.15997662 -53.14246347 86.15997662 -57.68847656 87.37963867 C-61.31981218 86.3554158 -62.86186979 84.66782186 -65.12597656 81.69213867 C-65.60420857 77.16732811 -64.96186037 74.68139023 -62.43847656 70.94213867 C-61.79394531 69.9856543 -61.14941406 69.02916992 -60.48535156 68.04370117 C-59.7013602 66.92478109 -58.91470098 65.80772749 -58.12597656 64.69213867 C-57.68060547 64.05759766 -57.23523438 63.42305664 -56.77636719 62.76928711 C-45.43593328 46.67689001 -33.46142308 31.03179603 -21.12597656 15.69213867 C-20.26732673 14.61186781 -19.40915073 13.53121989 -18.55175781 12.44995117 C-17.854375 11.58112305 -17.15699219 10.71229492 -16.43847656 9.81713867 C-15.73335937 8.9328418 -15.02824219 8.04854492 -14.30175781 7.13745117 C-9.7828086 2.05870394 -6.90044351 0.19935388 0 0 Z " fill="#3996F2" transform="translate(253.1259765625,576.307861328125)"/>
<path d="M0 0 C2.94026184 -0.38095093 2.94026184 -0.38095093 6.75708008 -0.38818359 C7.45159775 -0.39344055 8.14611542 -0.39869751 8.86167908 -0.40411377 C11.16452335 -0.41734905 13.46667956 -0.40856092 15.76953125 -0.3984375 C17.36895378 -0.40045793 18.96837542 -0.4033691 20.5677948 -0.40713501 C23.92459865 -0.41156369 27.28116336 -0.40511258 30.63793945 -0.39111328 C34.93550938 -0.37406225 39.23251558 -0.38383286 43.53006458 -0.40183067 C46.83554808 -0.41268933 50.14089877 -0.40921194 53.44638634 -0.4014473 C55.03038284 -0.39944888 56.61439148 -0.40189197 58.19837379 -0.40888596 C60.41748408 -0.41653028 62.63569292 -0.40485384 64.85473633 -0.38818359 C66.74764153 -0.38460342 66.74764153 -0.38460342 68.67878723 -0.38095093 C75.08826421 0.35423118 78.41223334 4.19529459 82.375 8.9375 C82.88466309 9.53941162 83.39432617 10.14132324 83.91943359 10.76147461 C90.37339358 18.49247828 96.30658817 26.62581942 102.29589844 34.71728516 C104.57016804 37.76376377 106.90695034 40.75610321 109.25 43.75 C130.41702355 71.1612955 130.41702355 71.1612955 131.3125 78.59375 C131 81 131 81 128.3125 83.8125 C124.87914297 86.07981125 123.93092482 86.53519634 120 86 C118.296875 84.671875 118.296875 84.671875 116.75 82.75 C115.84894531 81.64398437 115.84894531 81.64398437 114.9296875 80.515625 C112.10537144 76.83372309 109.3312535 73.11632888 106.5703125 69.38671875 C103.73619184 65.60826285 100.74595713 61.96304349 97.75 58.3125 C93.18588946 52.74380358 88.73274377 47.10668416 84.375 41.375 C83.84189209 40.67415283 83.30878418 39.97330566 82.75952148 39.2512207 C82.23173096 38.55730225 81.70394043 37.86338379 81.16015625 37.1484375 C78.06650502 33.08151347 74.95239606 29.0313294 71.8125 25 C71.35472168 24.40622559 70.89694336 23.81245117 70.42529297 23.20068359 C68.11263065 20.14122459 68.11263065 20.14122459 65 18 C62.62075438 17.87808779 60.26876683 17.81441706 57.88818359 17.79467773 C57.15637375 17.78477814 56.4245639 17.77487854 55.670578 17.76467896 C53.24656432 17.73303801 50.82253102 17.70829634 48.3984375 17.68359375 C46.71977218 17.66302646 45.04111207 17.64203005 43.36245728 17.62062073 C38.94018769 17.56537682 34.51787119 17.51597779 30.09552002 17.46777344 C25.58447078 17.41757533 21.07348982 17.36188045 16.5625 17.30664062 C7.70839164 17.1990307 -1.14577596 17.09759203 -10 17 C-8.70966095 14.72840311 -7.41778598 12.45770375 -6.125 10.1875 C-5.76019531 9.54490234 -5.39539063 8.90230469 -5.01953125 8.24023438 C-3.41916099 5.43231202 -1.79357134 2.69035702 0 0 Z " fill="#3999F6" transform="translate(575,577)"/>
<path d="M0 0 C3.89373193 0.95635521 5.33111278 1.57254692 7.5625 4.875 C8.25 7.625 8.25 7.625 7.5625 10.875 C2.68500043 17.67501027 -3.8595436 23.45110028 -9.7800293 29.34790039 C-11.37208966 30.93459946 -12.9587299 32.52657742 -14.54492188 34.11914062 C-19.47980414 39.05720085 -24.45267527 43.90252749 -29.76293945 48.44116211 C-32.09211456 50.43551193 -34.32012089 52.53403556 -36.5625 54.625 C-56.83451647 73.13670131 -56.83451647 73.13670131 -65.65307617 73.10205078 C-66.9341777 73.10189972 -68.21527924 73.10174866 -69.53520203 73.10159302 C-70.93362584 73.09137973 -72.33204808 73.08094774 -73.73046875 73.0703125 C-75.16107485 73.06658178 -76.59168352 73.06373509 -78.02229309 73.06173706 C-81.78542144 73.05410522 -85.54839511 73.03446069 -89.3114624 73.0123291 C-93.15228178 72.99186094 -96.99312617 72.98273327 -100.83398438 72.97265625 C-108.36856006 72.95121429 -115.90300834 72.91708387 -123.4375 72.875 C-123.46471176 70.97924749 -123.48399136 69.08338021 -123.5 67.1875 C-123.51160156 66.13175781 -123.52320313 65.07601562 -123.53515625 63.98828125 C-123.44615425 61.15089738 -123.08689838 58.6311081 -122.4375 55.875 C-121.40179619 55.86286972 -121.40179619 55.86286972 -120.34516907 55.85049438 C-113.15871766 55.76443706 -105.9725417 55.66493246 -98.78637695 55.55761719 C-96.1044486 55.51825464 -93.42252158 55.48365764 -90.74047852 55.453125 C-86.88539318 55.40746047 -83.03066031 55.34946701 -79.17578125 55.2890625 C-77.97665604 55.27751129 -76.77753082 55.26596008 -75.54206848 55.25405884 C-73.8608918 55.2242543 -73.8608918 55.2242543 -72.14575195 55.19384766 C-71.16202103 55.18052399 -70.1782901 55.16720032 -69.16474915 55.1534729 C-63.30351939 54.55499672 -59.87310033 51.77901836 -55.75 47.8125 C-54.67752397 46.8042186 -53.60460175 45.79641161 -52.53125 44.7890625 C-52.00402344 44.29051758 -51.47679687 43.79197266 -50.93359375 43.27832031 C-48.90598271 41.37644233 -46.82967847 39.53214632 -44.75 37.6875 C-40.04273827 33.4608825 -35.42305514 29.14395981 -30.8125 24.8125 C-29.75542847 23.82117065 -29.75542847 23.82117065 -28.67700195 22.80981445 C-24.44099257 18.8191128 -20.29946916 14.74918613 -16.19628906 10.62231445 C-14.23381739 8.67264625 -12.21671712 6.8102231 -10.125 5 C-9.48949219 4.44570313 -8.85398437 3.89140625 -8.19921875 3.3203125 C-3.97580228 -0.14457463 -3.97580228 -0.14457463 0 0 Z " fill="#3796F4" transform="translate(712.4375,453.125)"/>
<path d="M0 0 C2.38671875 1.58203125 2.38671875 1.58203125 4.6875 3.8125 C5.97333984 5.04033203 5.97333984 5.04033203 7.28515625 6.29296875 C11.00677757 10.00388036 14.7262914 13.71624996 18.421875 17.453125 C20.51726996 19.52312123 22.63160465 21.47094176 24.875 23.375 C28.61546321 26.56132051 32.04778711 30.00900923 35.5 33.5 C39.60439559 37.64597243 43.70105645 41.72566374 48.2109375 45.4375 C50 47 50 47 51.6640625 48.9375 C55.18222547 52.78113179 58.01732614 54.33431146 63.29737854 54.60169983 C63.98299362 54.62099045 64.6686087 54.64028107 65.375 54.66015625 C66.10955917 54.69189438 66.84411835 54.72363251 67.60093689 54.7563324 C70.06701052 54.85601804 72.53289836 54.93049511 75 55 C75.88116486 55.02698975 76.76232971 55.05397949 77.67019653 55.08178711 C84.30024146 55.28043131 90.93092953 55.42611666 97.5625 55.5625 C99.55664687 55.60583338 101.55078757 55.64945153 103.54492188 55.69335938 C108.36321671 55.79884448 113.18157768 55.90051588 118 56 C118.33 61.61 118.66 67.22 119 73 C108.85520599 73.04843668 98.7118549 73.06866278 88.56703186 73.02334595 C84.62015997 73.00648263 80.67433145 72.99663926 76.72753906 73.03076172 C52.43631633 73.20518849 52.43631633 73.20518849 45.453125 66.56640625 C44.64359375 65.71949219 43.8340625 64.87257813 43 64 C41.81884605 62.97481546 40.62506902 61.96406952 39.421875 60.96484375 C32.38670096 55.11088629 25.79863131 48.94330428 19.3984375 42.40234375 C17.3894976 40.39013196 15.35599785 38.52203088 13.1875 36.6875 C-6.91328703 19.45232104 -6.91328703 19.45232104 -12 10 C-12.25 6.6875 -12.25 6.6875 -11 4 C-7.49135085 0.1906095 -5.08716557 -0.5546158 0 0 Z " fill="#3595F4" transform="translate(186,453)"/>
<path d="M0 0 C0.48066535 1.89545392 0.95946743 3.79138039 1.4375 5.6875 C1.70433594 6.74324219 1.97117187 7.79898438 2.24609375 8.88671875 C2.89911169 11.58337832 3.46532238 14.27818825 4 17 C3.19965332 17.16943115 2.39930664 17.3388623 1.57470703 17.51342773 C-7.56118966 19.45815933 -16.68080702 21.46860073 -25.79003906 23.53442383 C-27.36409882 23.89041413 -28.93865654 24.24420886 -30.51367188 24.59594727 C-32.82537273 25.11237592 -35.13546365 25.6355144 -37.4453125 26.16015625 C-38.14633087 26.31541275 -38.84734924 26.47066925 -39.5696106 26.63063049 C-44.55582898 27.68401205 -44.55582898 27.68401205 -49 30 C-50.54071213 32.47950646 -50.54071213 32.47950646 -51.77734375 35.51953125 C-52.28458984 36.67364502 -52.79183594 37.82775879 -53.31445312 39.0168457 C-53.85548754 40.28205577 -54.39650269 41.54727407 -54.9375 42.8125 C-55.50442714 44.11024576 -56.07280858 45.40735709 -56.64257812 46.70385742 C-57.83270078 49.4158692 -59.01641037 52.13053655 -60.19482422 54.84765625 C-62.81802737 60.89058532 -65.48275734 66.91486327 -68.1645813 72.93197632 C-68.98122755 74.7702433 -69.78942234 76.61225745 -70.59741211 78.4543457 C-77.83076372 94.74412637 -77.83076372 94.74412637 -82.375 97.375 C-85.94452954 96.86506721 -87.92388612 95.29274852 -90.7421875 93.12890625 C-92.75518242 89.72181857 -91.91637576 86.65515066 -91 83 C-89.80291005 79.27748651 -88.36301655 75.6773399 -86.875 72.0625 C-86.44413086 71.00144043 -86.01326172 69.94038086 -85.56933594 68.84716797 C-81.66043533 59.35198932 -77.48595534 49.97789996 -73.25 40.625 C-72.93448181 39.92625763 -72.61896362 39.22751526 -72.29388428 38.50759888 C-70.79077886 35.1876833 -69.26983668 31.87826327 -67.70507812 28.58691406 C-66.61801665 26.30010033 -65.55651589 24.0008356 -64.52929688 21.68652344 C-61.22560268 14.76330734 -61.22560268 14.76330734 -58.01489258 12.76367188 C-55.68345972 11.94553441 -53.42842099 11.45093092 -51 11 C-49.23621946 10.53112584 -47.47456567 10.05419629 -45.71484375 9.5703125 C-43.79035419 9.08340749 -41.86450471 8.60185363 -39.9375 8.125 C-38.39703003 7.74190674 -38.39703003 7.74190674 -36.82543945 7.35107422 C-29.14209694 5.46713007 -21.430406 3.74584125 -13.6875 2.125 C-12.66197021 1.9098877 -11.63644043 1.69477539 -10.57983398 1.47314453 C-3.39140043 0 -3.39140043 0 0 0 Z " fill="#3998F5" transform="translate(331,642)"/>
<path d="M0 0 C14.74407427 2.60997588 29.41144785 5.62944081 44 9 C44.86834473 9.19819336 45.73668945 9.39638672 46.63134766 9.60058594 C48.73004113 10.10169981 50.80078089 10.65674679 52.875 11.25 C53.94492187 11.54390625 55.01484375 11.8378125 56.1171875 12.140625 C60.64603051 15.06166738 62.55173676 19.29723279 65 24 C65.44698242 24.85078125 65.89396484 25.7015625 66.35449219 26.578125 C72.88107883 39.35316307 78.66655666 52.51049995 84.28128052 65.70709229 C84.96537703 67.31109827 85.65484539 68.91282446 86.349823 70.512146 C87.3299265 72.77464088 88.28692732 75.04560473 89.23828125 77.3203125 C89.68105911 78.3283493 89.68105911 78.3283493 90.13278198 79.35675049 C92.01291814 83.95071239 92.231273 87.19688941 91 92 C88.58810423 94.61288708 86.94253587 95.76436603 83.5 96.625 C79.79137387 95.69784347 78.13405248 92.99143232 76 90 C74.33764648 86.90161133 74.33764648 86.90161133 72.87109375 83.58203125 C72.59982666 82.97504395 72.32855957 82.36805664 72.04907227 81.74267578 C71.46985265 80.44297553 70.89507429 79.1412882 70.32443237 77.83779907 C69.4242999 75.78235774 68.51162455 73.73288511 67.59594727 71.68432617 C64.82863279 65.47900941 62.10270627 59.25647913 59.42002869 53.01411438 C58.61007112 51.13168212 57.79513082 49.25148465 56.97875977 47.37182617 C55.97191239 45.04665148 54.97705315 42.71623881 53.99584961 40.38012695 C53.54218018 39.33300537 53.08851074 38.28588379 52.62109375 37.20703125 C52.2336499 36.2941333 51.84620605 35.38123535 51.44702148 34.44067383 C49.19682345 30.64529171 46.54645008 28.54939483 42.39477539 27.07446289 C41.47172607 26.8758667 40.54867676 26.67727051 39.59765625 26.47265625 C38.55206543 26.2401416 37.50647461 26.00762695 36.42919922 25.76806641 C35.31818848 25.53522949 34.20717773 25.30239258 33.0625 25.0625 C31.92055176 24.81161621 30.77860352 24.56073242 29.60205078 24.30224609 C27.24021283 23.78345899 24.87723678 23.26982768 22.51318359 22.76123047 C17.12363705 21.59343296 11.75019202 20.35684274 6.375 19.125 C3.25032072 18.41524421 0.12514608 17.70769841 -3 17 C-2.86722656 16.443125 -2.73445312 15.88625 -2.59765625 15.3125 C-1.41779695 10.2141299 -0.56750461 5.20212559 0 0 Z " fill="#3797F5" transform="translate(563,642)"/>
<path d="M0 0 C7.76663867 2.91922202 11.44485757 8.88971515 15 16 C15.82421824 23.14772868 14.72556924 28.84364952 11 35 C6.69336916 40.38328855 1.71433669 43.45059748 -5.08984375 44.45703125 C-11.89846364 44.79865395 -16.67836834 44.07060097 -22.125 39.85546875 C-27.26758908 34.76644831 -30.10652166 29.1239152 -30.375 21.875 C-30.29548097 15.85540948 -28.80134906 11.67230254 -25 7 C-17.18416849 -0.09850854 -10.35409576 -1.08271255 0 0 Z " fill="#020304" transform="translate(403,296)"/>
<path d="M0 0 C4.67233333 3.2173127 8.25978476 6.47225747 10 12 C10.87628553 19.6565448 10.3995697 26.50355937 6 33 C1.8276691 37.59747362 -2.55593137 40.5914622 -8.83203125 41.3359375 C-15.44895639 41.42265998 -20.59982907 41.05640747 -26 37 C-31.94343839 31.05656161 -34.14831685 25.7937867 -34.5 17.5625 C-34.32092471 10.47274632 -32.35966458 6.51278602 -27.54296875 1.4765625 C-19.11771712 -6.21509202 -9.25207696 -5.38181856 0 0 Z " fill="#020305" transform="translate(511,299)"/>
<path d="M0 0 C1.3515625 2.546875 1.3515625 2.546875 2.625 5.75 C3.05039062 6.79671875 3.47578125 7.8434375 3.9140625 8.921875 C7.06780902 17.8612716 7.24833289 26.92791471 3.3359375 35.640625 C0.21002763 41.16123775 -4.06991829 46.43564034 -10 49 C-11.32 49 -12.64 49 -14 49 C-12.85729156 45.95277749 -11.53425909 43.11242368 -10 40.25 C-5.74086619 31.71584009 -4.03952718 20.80779572 -6.7109375 11.53125 C-7.46269959 9.68288082 -8.23016306 7.84091443 -9 6 C-8.73828125 3.8984375 -8.73828125 3.8984375 -8 2 C-3.744 -1.248 -3.744 -1.248 0 0 Z " fill="#74B6F8" transform="translate(540,618)"/>
<path d="M0 0 C3.63 0 7.26 0 11 0 C6.72651216 14.71979146 -3.08060549 28.69584727 -16.55078125 36.47265625 C-23.34018106 40 -23.34018106 40 -27 40 C-26.45500975 36.0883764 -24.71508643 34.45522449 -21.875 31.8125 C-12.62122746 22.82186791 -4.80765272 12.01913181 0 0 Z " fill="#80C0FA" transform="translate(713,359)"/>
<path d="M0 0 C3.2506847 5.48297092 3.58142794 12.27523199 3.5625 18.5 C3.56008301 19.33225098 3.55766602 20.16450195 3.55517578 21.02197266 C3.35342412 27.7351602 1.93335328 32.23482922 -3 37 C-3.5259375 37.51691406 -4.051875 38.03382813 -4.59375 38.56640625 C-8.15495558 41.7551388 -11.18780957 44 -16 44 C-14.72478109 39.7492703 -13.04971077 35.94261158 -11 32.02734375 C-6.16444178 22.22400502 -7.80966758 11.60671212 -9 1 C-5.5861049 -0.61211713 -3.56541674 -1.48607757 0 0 Z " fill="#72B5F7" transform="translate(532,687)"/>
<path d="M0 0 C14.31201249 13.73853464 23.36685396 33.35577945 30.8125 51.4375 C31.26359131 52.50967773 31.71468262 53.58185547 32.17944336 54.68652344 C32.58042236 55.69618164 32.98140137 56.70583984 33.39453125 57.74609375 C33.75393799 58.63997803 34.11334473 59.5338623 34.48364258 60.45483398 C35.12929731 63.63731653 34.34095807 65.10041332 33 68 C33.020625 69.051875 33.04125 70.10375 33.0625 71.1875 C33.041875 72.115625 33.02125 73.04375 33 74 C32.01 74.66 31.02 75.32 30 76 C29.67837891 75.00371582 29.35675781 74.00743164 29.02539062 72.98095703 C21.99169342 51.25490812 14.91060739 30.29352826 3.6640625 10.33203125 C1.93204936 6.8639392 0.94180485 3.74343646 0 0 Z " fill="#6BB0F4" transform="translate(513,272)"/>
<path d="M0 0 C3.10352253 1.05042301 4.01653459 2.02581529 5.81640625 4.8359375 C12.63814323 18.66254534 16.99112976 32.29033577 12.1875 47.625 C10.9210805 51.24472777 9.7671315 53.38957005 7 56 C6.96559814 55.29093506 6.93119629 54.58187012 6.89575195 53.85131836 C6.10397624 28.05643102 6.10397624 28.05643102 -6 6 C-4.02 4.02 -2.04 2.04 0 0 Z " fill="#72B3F6" transform="translate(251,322)"/>
<path d="M0 0 C3.18741377 6.20706893 2.97548776 14.18768838 1.27734375 20.82421875 C-0.61091231 25.9385641 -2.72050853 29.49859789 -7 33 C-7.62261719 33.5259375 -8.24523437 34.051875 -8.88671875 34.59375 C-12.83774814 37.78467659 -15.75598568 39.73779928 -21 40 C-18.97163087 35.48899158 -15.89126217 31.83598306 -12.875 27.94921875 C-9.0132499 21.87500766 -8.71989315 16.02441115 -8.875 9.0625 C-8.88402344 8.28326172 -8.89304687 7.50402344 -8.90234375 6.70117188 C-8.92566309 4.80064553 -8.96152414 2.90027992 -9 1 C-3.375 -1.125 -3.375 -1.125 0 0 Z " fill="#7CBEF9" transform="translate(522,750)"/>
<path d="M0 0 C5.42943205 0.87533327 7.82046724 4.817793 11 9 C13.4336737 12.60789759 15.74801099 16.27634645 18 20 C17.01 20.33 16.02 20.66 15 21 C15.04125 22.11375 15.0825 23.2275 15.125 24.375 C15 28 15 28 13 30 C12.67725098 29.32420898 12.35450195 28.64841797 12.02197266 27.95214844 C10.55668798 24.88458735 9.09084994 21.81729101 7.625 18.75 C7.11710938 17.68652344 6.60921875 16.62304688 6.0859375 15.52734375 C5.59609375 14.50253906 5.10625 13.47773437 4.6015625 12.421875 C4.15119629 11.47924805 3.70083008 10.53662109 3.23681641 9.56542969 C2.47075514 7.97644987 1.67604639 6.40052936 0.83740234 4.84863281 C0 3 0 3 0 0 Z " fill="#68B1FD" transform="translate(819,53)"/>
<path d="M0 0 C4.88379302 1.03311006 7.95106674 4.03192531 11.25 7.6875 C12.484375 9.921875 12.484375 9.921875 13.25 11.6875 C9.30860922 10.01998852 6.4607188 7.46039351 3.25 4.6875 C3.25 5.3475 3.25 6.0075 3.25 6.6875 C-1.205 7.1825 -1.205 7.1825 -5.75 7.6875 C-5.75 10.9875 -5.75 14.2875 -5.75 17.6875 C-6.08 17.6875 -6.41 17.6875 -6.75 17.6875 C-6.85832169 15.60531638 -6.93573541 13.52150871 -7 11.4375 C-7.04640625 10.27734375 -7.0928125 9.1171875 -7.140625 7.921875 C-6.75 4.6875 -6.75 4.6875 -4.90625 2.30859375 C-2.75 0.6875 -2.75 0.6875 0 0 Z " fill="#3392ED" transform="translate(400.75,216.3125)"/>
<path d="M0 0 C2.32319452 2.08286405 2.94910155 2.66552446 3.4375 5.875 C2.90803907 9.65686378 1.40954093 11.1240963 -1 14 C-0.67 14.99 -0.34 15.98 0 17 C-3 17 -3 17 -5.25 15.25 C-7 13 -7 13 -6.80078125 11.15625 C-5.83661077 8.5600446 -4.51121366 6.52686232 -2.9375 4.25 C-2.38964844 3.45078125 -1.84179688 2.6515625 -1.27734375 1.828125 C-0.85582031 1.22484375 -0.43429688 0.6215625 0 0 Z " fill="#3797F0" transform="translate(187,165)"/>
<path d="M0 0 C3 0.25 3 0.25 5 2.25 C5.375 4.6875 5.375 4.6875 5 7.25 C3.3125 9.125 3.3125 9.125 1 10.25 C-2.37036311 10.00925978 -3.58798021 9.66201979 -6 7.25 C-5.54913314 2.74133137 -4.87117378 0.40593115 0 0 Z " fill="#E8E9EA" transform="translate(389,302.75)"/>
<path d="M0 0 C2.375 0.75 2.375 0.75 3.375 1.75 C3.6875 4.625 3.6875 4.625 3.375 7.75 C1.625 9.6875 1.625 9.6875 -0.625 10.75 C-3.62888632 10.48495121 -4.45804275 9.91695725 -6.625 7.75 C-6.4112539 4.97130072 -5.9239626 3.19844389 -4.375 0.875 C-2.625 -0.25 -2.625 -0.25 0 0 Z " fill="#E4E6E6" transform="translate(492.625,302.25)"/>
<path d="M0 0 C0 3 0 3 -1 6 C-1.66 6 -2.32 6 -3 6 C-3 7.98 -3 9.96 -3 12 C-4.65 11.67 -6.3 11.34 -8 11 C-8 10.01 -8 9.02 -8 8 C-8.99 8.99 -9.98 9.98 -11 11 C-12.5 9.625 -12.5 9.625 -14 8 C-14 7.34 -14 6.68 -14 6 C-13.32453125 5.73445313 -12.6490625 5.46890625 -11.953125 5.1953125 C-11.06109375 4.84210938 -10.1690625 4.48890625 -9.25 4.125 C-8.36828125 3.77695312 -7.4865625 3.42890625 -6.578125 3.0703125 C-4.3259752 2.1353291 -2.16350541 1.12219206 0 0 Z " fill="#308FEC" transform="translate(250,411)"/>
<path d="M0 0 C1.78409802 3.06246747 2.22880021 5.22079273 2.125 8.75 C2.10695313 9.54921875 2.08890625 10.3484375 2.0703125 11.171875 C2.03550781 12.07679687 2.03550781 12.07679687 2 13 C1.34 13 0.68 13 0 13 C-0.33 14.98 -0.66 16.96 -1 19 C-1.99 19.33 -2.98 19.66 -4 20 C-4.66 20.66 -5.32 21.32 -6 22 C-5.52960495 14.16008251 -2.77062812 7.27928865 0 0 Z " fill="#348DE0" transform="translate(45,100)"/>
<path d="M0 0 C0.33 0 0.66 0 1 0 C0.96519531 0.97839844 0.96519531 0.97839844 0.9296875 1.9765625 C0.82416247 7.08698903 0.98073698 11.20425033 3 16 C2.34 16.33 1.68 16.66 1 17 C1 15.68 1 14.36 1 13 C0.01 15.31 -0.98 17.62 -2 20 C-1.01 19.67 -0.02 19.34 1 19 C3.6875 19.9375 3.6875 19.9375 6 21 C5.67 21.66 5.34 22.32 5 23 C-1.625 22.25 -1.625 22.25 -5 20 C-4.80664062 19.31035156 -4.61328125 18.62070312 -4.4140625 17.91015625 C-2.76761853 11.96828666 -1.28514381 6.03029017 0 0 Z " fill="#2D88DE" transform="translate(501,848)"/>
<path d="M0 0 C1 2.5 1 2.5 1 6 C-1.24356323 9.17743219 -3.77678959 11.81796409 -7 14 C-9.6484375 14.4140625 -9.6484375 14.4140625 -12 14 C-12.66 13.01 -13.32 12.02 -14 11 C-12.02 10.67 -10.04 10.34 -8 10 C-8.66 9.34 -9.32 8.68 -10 8 C-8.02 7.67 -6.04 7.34 -4 7 C-4 6.34 -4 5.68 -4 5 C-3.34 5 -2.68 5 -2 5 C-2 4.34 -2 3.68 -2 3 C-2.66 3 -3.32 3 -4 3 C-4 2.34 -4 1.68 -4 1 C-2 0 -2 0 0 0 Z " fill="#3996F1" transform="translate(205,649)"/>
<path d="M0 0 C3.76867646 0.55151363 5.34591504 2.0397255 7.8125 4.875 C8.43769531 5.57367188 9.06289063 6.27234375 9.70703125 6.9921875 C10.13371094 7.65476562 10.56039062 8.31734375 11 9 C10.67 9.99 10.34 10.98 10 12 C9.01 12.33 8.02 12.66 7 13 C3.66366632 10.00880429 1.75472293 7.12359889 0 3 C0 2.01 0 1.02 0 0 Z " fill="#56ADFD" transform="translate(819,53)"/>
<path d="M0 0 C0.66 0.66 1.32 1.32 2 2 C1.67582137 5.80909895 1.14418558 7.78372163 -1 11 C-3.4375 12.25 -3.4375 12.25 -6 13 C-6.99 12.67 -7.98 12.34 -9 12 C-6.03 8.04 -3.06 4.08 0 0 Z " fill="#3591E9" transform="translate(229,595)"/>
<path d="M0 0 C1.9375 0.8125 1.9375 0.8125 4 2 C4.33 2.99 4.66 3.98 5 5 C4.01 5 3.02 5 2 5 C1.855625 5.61875 1.71125 6.2375 1.5625 6.875 C1 9 1 9 0 11 C-3.39914975 9.86695008 -4.05254451 8.87481525 -6 6 C-4.02 4.02 -2.04 2.04 0 0 Z " fill="#6BAFF4" transform="translate(251,322)"/>
<path d="M0 0 C0.33 0.66 0.66 1.32 1 2 C1.66 2 2.32 2 3 2 C2.855625 2.60328125 2.71125 3.2065625 2.5625 3.828125 C2.376875 4.62734375 2.19125 5.4265625 2 6.25 C1.814375 7.03890625 1.62875 7.8278125 1.4375 8.640625 C0.87845172 11.25556002 0.87845172 11.25556002 1 15 C-0.32 14.67 -1.64 14.34 -3 14 C-3.33 14.66 -3.66 15.32 -4 16 C-3.47606294 10.13190493 -2.23891142 5.45126259 0 0 Z " fill="#3691E8" transform="translate(243,717)"/>
<path d="M0 0 C0.66 0.66 1.32 1.32 2 2 C1.34 2 0.68 2 0 2 C0 2.66 0 3.32 0 4 C-2.60582371 4.93065133 -3.64198224 5.14917407 -6.25 4.0625 C-7.11625 3.5365625 -7.11625 3.5365625 -8 3 C-8 4.65 -8 6.3 -8 8 C-8.66 8 -9.32 8 -10 8 C-10.66 6.68 -11.32 5.36 -12 4 C-7.86679602 0.8508922 -5.25319967 -0.71634541 0 0 Z " fill="#3694EE" transform="translate(785,24)"/>
<path d="M0 0 C0.33 0 0.66 0 1 0 C1.19397476 1.97854258 1.38001321 3.9578648 1.5625 5.9375 C1.66691406 7.03964844 1.77132812 8.14179688 1.87890625 9.27734375 C1.91886719 10.17582031 1.95882812 11.07429687 2 12 C1.67 12.33 1.34 12.66 1 13 C0.84213692 14.85174706 0.74892644 16.7090911 0.68359375 18.56640625 C0.64169922 19.69111328 0.59980469 20.81582031 0.55664062 21.97460938 C0.51732422 23.15861328 0.47800781 24.34261719 0.4375 25.5625 C0.39431641 26.75037109 0.35113281 27.93824219 0.30664062 29.16210938 C0.20016454 32.10794784 0.09815159 35.0538743 0 38 C-0.33 38 -0.66 38 -1 38 C-1.02941647 33.72918152 -1.04693715 29.45838966 -1.0625 25.1875 C-1.07087891 23.99189453 -1.07925781 22.79628906 -1.08789062 21.56445312 C-1.10764411 14.31492441 -0.81793065 7.20461349 0 0 Z " fill="#2463A7" transform="translate(33,149)"/>
<path d="M0 0 C3.33557632 2.9905167 5.15083921 5.93184627 7 10 C4.36 9.67 1.72 9.34 -1 9 C-1.66 7.02 -2.32 5.04 -3 3 C-2.01 2.67 -1.02 2.34 0 2 C0 1.34 0 0.68 0 0 Z " fill="#61AEF3" transform="translate(830,64)"/>
<path d="M0 0 C0 2.33333333 0 4.66666667 0 7 C-0.66 7.66 -1.32 8.32 -2 9 C-2.33 8.34 -2.66 7.68 -3 7 C-3.33 7.99 -3.66 8.98 -4 10 C-6.9375 11.75 -6.9375 11.75 -10 13 C-10.66 12.67 -11.32 12.34 -12 12 C-8.04 8.04 -4.08 4.08 0 0 Z " fill="#3895EA" transform="translate(677,68)"/>
<path d="M0 0 C1.8272911 2.74093665 2.93698178 5.13825324 4.125 8.1875 C4.47820313 9.08855469 4.83140625 9.98960937 5.1953125 10.91796875 C5.46085938 11.60503906 5.72640625 12.29210937 6 13 C1.25 12.125 1.25 12.125 -1 11 C-0.67 7.37 -0.34 3.74 0 0 Z " fill="#3290E9" transform="translate(635,682)"/>
<path d="M0 0 C3.66786393 1.50349377 5.68910393 3.63728792 8.25 6.625 C8.95640625 7.44226563 9.6628125 8.25953125 10.390625 9.1015625 C10.92171875 9.72804688 11.4528125 10.35453125 12 11 C9 11 9 11 6 10 C6 9.34 6 8.68 6 8 C5.38125 7.731875 4.7625 7.46375 4.125 7.1875 C2 6 2 6 0 3 C0 2.01 0 1.02 0 0 Z " fill="#3E97ED" transform="translate(543,810)"/>
<path d="M0 0 C0.33 0.99 0.66 1.98 1 3 C0.34 3 -0.32 3 -1 3 C-1.33 4.98 -1.66 6.96 -2 9 C-3.65 9.33 -5.3 9.66 -7 10 C-7.33 9.34 -7.66 8.68 -8 8 C-7.23883449 6.84772177 -6.46567307 5.7033614 -5.6875 4.5625 C-5.25824219 3.92441406 -4.82898438 3.28632812 -4.38671875 2.62890625 C-3 1 -3 1 0 0 Z " fill="#3998F0" transform="translate(664,84)"/>
<path d="M0 0 C4.2742558 1.5830577 6.26531794 4.50568404 9 8 C7.35 8.66 5.7 9.32 4 10 C3.01 9.01 2.02 8.02 1 7 C1.33 6.01 1.66 5.02 2 4 C1.12516085 1.83284443 1.12516085 1.83284443 0 0 Z " fill="#318FEA" transform="translate(208,475)"/>
<path d="M0 0 C1.125 1.6875 1.125 1.6875 2 4 C1.125 6.75 1.125 6.75 0 9 C-0.99 8.01 -1.98 7.02 -3 6 C-3.33 6.99 -3.66 7.98 -4 9 C-5.65 9.33 -7.3 9.66 -9 10 C-8.06409496 8.8944811 -7.12620142 7.79064547 -6.1875 6.6875 C-5.66542969 6.07261719 -5.14335938 5.45773438 -4.60546875 4.82421875 C-3.12827531 3.14575321 -1.59960869 1.56117966 0 0 Z " fill="#3698F2" transform="translate(85,39)"/>
<path d="M0 0 C2.64 0.99 5.28 1.98 8 3 C6.35 4.65 4.7 6.3 3 8 C1.66666667 6.66666667 0.33333333 5.33333333 -1 4 C-0.67 2.68 -0.34 1.36 0 0 Z " fill="#3A99EE" transform="translate(650,415)"/>
<path d="M0 0 C0.66 0.33 1.32 0.66 2 1 C1 4 1 4 -1.9375 6.4375 C-4.61294693 8.67613927 -5.82408011 9.8250163 -7 13 C-7.99 12.34 -8.98 11.68 -10 11 C-6.7 7.37 -3.4 3.74 0 0 Z " fill="#338EE3" transform="translate(244,578)"/>
<path d="M0 0 C2.625 0.375 2.625 0.375 5 1 C3.86500606 4.29148243 3.00716624 4.9959869 -0.125 6.75 C-1.548125 7.36875 -1.548125 7.36875 -3 8 C-2.25 2.25 -2.25 2.25 0 0 Z " fill="#7ABBF2" transform="translate(699,387)"/>
<path d="M0 0 C1.125 1.6875 1.125 1.6875 2 4 C1.08007655 7.4288056 -0.20375047 9.78630246 -3 12 C-3.66 12 -4.32 12 -5 12 C-3.68938409 7.76570244 -2.05643741 3.92592596 0 0 Z " fill="#3995EC" transform="translate(364,296)"/>
<path d="M0 0 C3.5991308 5.3986962 4.26122419 10.6000073 4 17 C3.01 17 2.02 17 1 17 C1.020625 15.906875 1.04125 14.81375 1.0625 13.6875 C1.18544452 10.05615809 1.18544452 10.05615809 0 7 C-0.03954234 4.66700175 -0.04401732 2.33291811 0 0 Z " fill="#3B92DF" transform="translate(259,138)"/>
<path d="M0 0 C3.82946843 1.45255699 5.12050295 3.42895561 7 7 C6.01 7.99 5.02 8.98 4 10 C3.34 9.67 2.68 9.34 2 9 C1.32624548 6.911361 1 5.19636905 1 3 C0.67 2.01 0.34 1.02 0 0 Z " fill="#5BACF0" transform="translate(823,56)"/>
<path d="M0 0 C1.125 1.6875 1.125 1.6875 2 4 C1.4375 6.6875 1.4375 6.6875 0 9 C-2.625 9.8125 -2.625 9.8125 -5 10 C-3.66511872 6.40608886 -2.03977277 3.24509304 0 0 Z " fill="#3691E6" transform="translate(370,286)"/>
<path d="M0 0 C1.98974713 2.80905477 2.1011012 4.87286664 1.75 8.1875 C1.5025 9.445625 1.255 10.70375 1 12 C0.01 12.495 0.01 12.495 -1 13 C-2.0070238 7.96488101 -1.97387813 4.76052962 0 0 Z " fill="#3897ED" transform="translate(45,100)"/>
<path d="M0 0 C0.99 0 1.98 0 3 0 C3.33 1.32 3.66 2.64 4 4 C0.91190305 5.76462683 -0.23312136 6 -4 6 C-2.84826645 3.53199953 -1.95216435 1.95216435 0 0 Z " fill="#74B7F3" transform="translate(505,784)"/>
<path d="M0 0 C2.475 0.495 2.475 0.495 5 1 C5 1.66 5 2.32 5 3 C5.66 3 6.32 3 7 3 C6.67 4.65 6.34 6.3 6 8 C1.125 3.375 1.125 3.375 0 0 Z " fill="#3B96EE" transform="translate(684,648)"/>
<path d="M0 0 C1.670625 0.061875 1.670625 0.061875 3.375 0.125 C0.49412454 2.52572955 -2.18904834 4.59791037 -5.625 6.125 C-5.625 0.92300404 -5.21373417 0.17978394 0 0 Z " fill="#6FB3F0" transform="translate(535.625,595.875)"/>
<path d="M0 0 C0.99 1.32 1.98 2.64 3 4 C-0.96 5.98 -0.96 5.98 -5 8 C-5.66 7.34 -6.32 6.68 -7 6 C-4.69 4.02 -2.38 2.04 0 0 Z " fill="#6DB2F3" transform="translate(787,322)"/>
<path d="M0 0 C0.33 0 0.66 0 1 0 C1.33 2.64 1.66 5.28 2 8 C0.02 8.99 0.02 8.99 -2 10 C-2 9.34 -2 8.68 -2 8 C-2.66 7.67 -3.32 7.34 -4 7 C-2.68 4.69 -1.36 2.38 0 0 Z M-5 11 C-3 12 -3 12 -3 12 Z " fill="#3791E9" transform="translate(477,233)"/>
<path d="M0 0 C1.11346788 2.80033839 1.03510273 3.90143703 0.00390625 6.796875 C-0.47175781 7.77140625 -0.94742187 8.7459375 -1.4375 9.75 C-1.91058594 10.73484375 -2.38367188 11.7196875 -2.87109375 12.734375 C-3.24363281 13.48203125 -3.61617188 14.2296875 -4 15 C-5.12377697 11.69564916 -4.89554742 9.9493138 -3.5625 6.75 C-3.27503906 6.04359375 -2.98757813 5.3371875 -2.69140625 4.609375 C-2.46324219 4.07828125 -2.23507812 3.5471875 -2 3 C-1.34 3 -0.68 3 0 3 C0 2.01 0 1.02 0 0 Z " fill="#3892EA" transform="translate(270,693)"/>
<path d="M0 0 C0.99 0.66 1.98 1.32 3 2 C3 2.99 3 3.98 3 5 C-1.22222222 8 -1.22222222 8 -4 8 C-2.87548273 5.0280615 -1.77706209 2.66559313 0 0 Z " fill="#3496EC" transform="translate(278,380)"/>
<path d="M0 0 C1.41377341 2.63904371 2.37240135 5.07120629 3 8 C1.35 8.33 -0.3 8.66 -2 9 C-2.33 8.34 -2.66 7.68 -3 7 C-2.34 7 -1.68 7 -1 7 C-1.33 5.02 -1.66 3.04 -2 1 C-1.34 0.67 -0.68 0.34 0 0 Z " fill="#388FE4" transform="translate(248,730)"/>
<path d="M0 0 C2.0625 0.4375 2.0625 0.4375 4 1 C3.34 2.32 2.68 3.64 2 5 C1.34 5 0.68 5 0 5 C0 5.66 0 6.32 0 7 C-0.99 7 -1.98 7 -3 7 C-1.125 1.125 -1.125 1.125 0 0 Z " fill="#328AE4" transform="translate(363,687)"/>
<path d="M0 0 C1.60031344 3.20062687 0.03173691 5.72271806 -1 9 C-4 9 -4 9 -6 8 C-4.02 5.36 -2.04 2.72 0 0 Z " fill="#3791E9" transform="translate(439,230)"/>
<path d="M0 0 C0.33 0 0.66 0 1 0 C2.38461538 9.23076923 2.38461538 9.23076923 0 14 C-0.99 14.33 -1.98 14.66 -3 15 C-2.01 10.05 -1.02 5.1 0 0 Z " fill="#2D85D8" transform="translate(198,131)"/>
<path d="M0 0 C0.33 1.98 0.66 3.96 1 6 C-0.32 6.33 -1.64 6.66 -3 7 C-3.33 5.02 -3.66 3.04 -4 1 C-2 0 -2 0 0 0 Z " fill="#3497F0" transform="translate(500,810)"/>
<path d="M0 0 C0.4125 0.45375 0.825 0.9075 1.25 1.375 C3.06408095 3.05950374 4.75285627 3.99265971 7 5 C6 6 6 6 3.625 6.3125 C1 6 1 6 -0.8125 4 C-1.204375 3.34 -1.59625 2.68 -2 2 C-1.34 2 -0.68 2 0 2 C0 1.34 0 0.68 0 0 Z M2 0 C4 1 4 1 4 1 Z " fill="#3E92E3" transform="translate(694,657)"/>
<path d="M0 0 C1.485 0.99 1.485 0.99 3 2 C3 2.66 3 3.32 3 4 C4.65 4.33 6.3 4.66 8 5 C8 5.99 8 6.98 8 8 C4.06326356 6.68775452 1.77280706 5.08089673 -1 2 C-0.67 1.34 -0.34 0.68 0 0 Z " fill="#3B94EB" transform="translate(196,390)"/>
<path d="M0 0 C0.99 0.99 1.98 1.98 3 3 C1.3584951 6.2830098 -1.82902851 7.27037919 -5 9 C-3.7508258 5.54074837 -2.32472205 2.85306797 0 0 Z " fill="#378EE5" transform="translate(378,274)"/>
<path d="M0 0 C1.32 0.66 2.64 1.32 4 2 C2 4 2 4 -0.0625 4.5 C-0.701875 4.665 -1.34125 4.83 -2 5 C-2.33 5.66 -2.66 6.32 -3 7 C-3.66 7 -4.32 7 -5 7 C-5.33 6.01 -5.66 5.02 -6 4 C-4.02 2.68 -2.04 1.36 0 0 Z " fill="#3795F0" transform="translate(684,63)"/>
<path d="M0 0 C0.66 0 1.32 0 2 0 C3.80230168 3.82989106 4.19622241 6.78121808 4 11 C3.34 11 2.68 11 2 11 C1.34 7.37 0.68 3.74 0 0 Z " fill="#3A94E2" transform="translate(561,834)"/>
<path d="M0 0 C0.99 0 1.98 0 3 0 C3.33 0.99 3.66 1.98 4 3 C2.35 4.32 0.7 5.64 -1 7 C-1.625 5.1875 -1.625 5.1875 -2 3 C-1.34 2.01 -0.68 1.02 0 0 Z " fill="#3492EC" transform="translate(670,506)"/>
<path d="M0 0 C2.5 1.625 2.5 1.625 5 4 C5.3125 7.25 5.3125 7.25 5 10 C4.566875 9.360625 4.13375 8.72125 3.6875 8.0625 C2.08760823 5.73253997 2.08760823 5.73253997 -1 5 C-0.67 3.35 -0.34 1.7 0 0 Z " fill="#3488DB" transform="translate(715,454)"/>
<path d="M0 0 C3.3 0.33 6.6 0.66 10 1 C10 2.32 10 3.64 10 5 C6.7 4.01 3.4 3.02 0 2 C0 1.34 0 0.68 0 0 Z " fill="#3B8CD9" transform="translate(294,452)"/>
<path d="M0 0 C0.66 0.99 1.32 1.98 2 3 C-0.36292656 5.52588702 -1.66462511 6.88820837 -5 8 C-5.66 7.34 -6.32 6.68 -7 6 C-6.21625 5.566875 -5.4325 5.13375 -4.625 4.6875 C-1.78301625 3.10779753 -1.78301625 3.10779753 0 0 Z " fill="#338EE7" transform="translate(413,331)"/>
<path d="M0 0 C0.99 0.33 1.98 0.66 3 1 C2.67 5.29 2.34 9.58 2 14 C1.67 14 1.34 14 1 14 C0.04738513 9.23692563 -0.08333357 4.8333472 0 0 Z " fill="#328ADD" transform="translate(33,192)"/>
<path d="M0 0 C5.28 0 10.56 0 16 0 C16 0.33 16 0.66 16 1 C14.98679687 1.09087891 14.98679687 1.09087891 13.953125 1.18359375 C13.06109375 1.26738281 12.1690625 1.35117187 11.25 1.4375 C10.36828125 1.51871094 9.4865625 1.59992187 8.578125 1.68359375 C6.30649548 1.96238465 4.20148177 2.38790577 2 3 C1.34 2.01 0.68 1.02 0 0 Z " fill="#44A7FE" transform="translate(428,761)"/>
<path d="M0 0 C2.31 0.33 4.62 0.66 7 1 C6.360625 1.309375 5.72125 1.61875 5.0625 1.9375 C3.06389179 2.8345163 3.06389179 2.8345163 2 4 C1.76924918 5.34747084 1.58846937 6.70377565 1.4375 8.0625 C1.293125 9.361875 1.14875 10.66125 1 12 C0.67 12 0.34 12 0 12 C0 8.04 0 4.08 0 0 Z " fill="#3389E2" transform="translate(521,310)"/>
<path d="M0 0 C0.66 0.99 1.32 1.98 2 3 C0.68 4.65 -0.64 6.3 -2 8 C-4.31 7.34 -6.62 6.68 -9 6 C-9 5.67 -9 5.34 -9 5 C-7.88625 4.731875 -6.7725 4.46375 -5.625 4.1875 C-1.78159049 3.34190981 -1.78159049 3.34190981 0 0 Z " fill="#348BDA" transform="translate(193,196)"/>
<path d="M0 0 C0.66 0 1.32 0 2 0 C3.98 3.96 5.96 7.92 8 12 C7.34 12 6.68 12 6 12 C5.566875 11.071875 5.13375 10.14375 4.6875 9.1875 C3.23894475 6.07352146 3.23894475 6.07352146 1.3125 4.3125 C0.879375 3.879375 0.44625 3.44625 0 3 C0 2.01 0 1.02 0 0 Z " fill="#419BEB" transform="translate(240,98)"/>
<path d="M0 0 C1.32 0.66 2.64 1.32 4 2 C4 2.99 4 3.98 4 5 C3.34 5 2.68 5 2 5 C1.67 5.99 1.34 6.98 1 8 C0.87625 7.360625 0.7525 6.72125 0.625 6.0625 C0.315625 5.0415625 0.315625 5.0415625 0 4 C-0.66 3.67 -1.32 3.34 -2 3 C-1.34 2.01 -0.68 1.02 0 0 Z " fill="#3794EB" transform="translate(202,631)"/>
<path d="M0 0 C0.99 0.33 1.98 0.66 3 1 C2.8125 2.875 2.8125 2.875 2 5 C-0.5625 6.25 -0.5625 6.25 -3 7 C-1.125 2.25 -1.125 2.25 0 0 Z " fill="#378EDF" transform="translate(355,617)"/>
<path d="M0 0 C0.66 0.99 1.32 1.98 2 3 C1.01595171 5.95214486 0.01178391 7.66633067 -2 10 C-2.66 10 -3.32 10 -4 10 C-2.8905928 6.51329166 -1.73662334 3.22515763 0 0 Z " fill="#3693EC" transform="translate(637,328)"/>
<path d="M0 0 C0.66 1.32 1.32 2.64 2 4 C-0.3125 5.125 -0.3125 5.125 -3 6 C-3.99 5.34 -4.98 4.68 -6 4 C-5.01 4 -4.02 4 -3 4 C-3 3.01 -3 2.02 -3 1 C-2.01 0.67 -1.02 0.34 0 0 Z " fill="#348DE2" transform="translate(701,330)"/>
<path d="M0 0 C0.66 0.33 1.32 0.66 2 1 C1.75 3.375 1.75 3.375 1 6 C-0.9375 7.375 -0.9375 7.375 -3 8 C-3.66 7.67 -4.32 7.34 -5 7 C-4.34 5.68 -3.68 4.36 -3 3 C-3 3.66 -3 4.32 -3 5 C-2.01 5 -1.02 5 0 5 C0 3.35 0 1.7 0 0 Z " fill="#3992EB" transform="translate(357,316)"/>
<path d="M0 0 C1.65 0.33 3.3 0.66 5 1 C2 3 2 3 0 3 C-0.33 4.32 -0.66 5.64 -1 7 C-1.99 6.34 -2.98 5.68 -4 5 C-2.68 3.35 -1.36 1.7 0 0 Z " fill="#338CE3" transform="translate(486,220)"/>
<path d="M0 0 C1.2065625 0.0309375 1.2065625 0.0309375 2.4375 0.0625 C1.4475 1.5475 1.4475 1.5475 0.4375 3.0625 C-0.2225 3.0625 -0.8825 3.0625 -1.5625 3.0625 C-1.8925 5.7025 -2.2225 8.3425 -2.5625 11.0625 C-2.8925 11.0625 -3.2225 11.0625 -3.5625 11.0625 C-3.58938151 9.41675434 -3.60884123 7.77088587 -3.625 6.125 C-3.63660156 5.20847656 -3.64820313 4.29195313 -3.66015625 3.34765625 C-3.52086326 0.08820018 -3.27895972 0.07997463 0 0 Z " fill="#3086D9" transform="translate(203.5625,60.9375)"/>
<path d="M0 0 C2.60691842 2.60691842 2.70416963 4.37607794 3 8 C2.01 9.485 2.01 9.485 1 11 C-1.03684712 6.92630576 -1.0257259 4.41062136 0 0 Z M0 4 C1 6 1 6 1 6 Z " fill="#318DE6" transform="translate(330,837)"/>
<path d="M0 0 C0.75 1.75 0.75 1.75 1 4 C-0.8125 6.25 -0.8125 6.25 -3 8 C-3.66 8 -4.32 8 -5 8 C-3.8141763 4.62496331 -2.72426311 2.35277269 0 0 Z " fill="#3794E9" transform="translate(341,819)"/>
<path d="M0 0 C1.32 0.33 2.64 0.66 4 1 C4 1.66 4 2.32 4 3 C4.66 3 5.32 3 6 3 C5.67 4.32 5.34 5.64 5 7 C3.29115995 5.37660195 1.62553283 3.70680947 0 2 C0 1.34 0 0.68 0 0 Z " fill="#3D9AEF" transform="translate(345,584)"/>
<path d="M0 0 C0.99 0.66 1.98 1.32 3 2 C1.35 4.31 -0.3 6.62 -2 9 C-2.66 8.67 -3.32 8.34 -4 8 C-2.68 5.36 -1.36 2.72 0 0 Z " fill="#3891E1" transform="translate(574,578)"/>
<path d="M0 0 C3.7952131 1.49097658 5.61042731 3.75700849 8 7 C5 7 5 7 2.3125 4.625 C0 2 0 2 0 0 Z " fill="#3386D8" transform="translate(183,472)"/>
<path d="M0 0 C3.24208567 0.35049575 4.61527704 0.56221181 6.8125 3.0625 C7.204375 3.701875 7.59625 4.34125 8 5 C6.25 5.75 6.25 5.75 4 6 C1.75 4.1875 1.75 4.1875 0 2 C0 1.34 0 0.68 0 0 Z " fill="#3395F6" transform="translate(447,226)"/>
<path d="M0 0 C0.66 1.32 1.32 2.64 2 4 C1.13375 4.185625 1.13375 4.185625 0.25 4.375 C-2.02335767 5.00648824 -3.9253529 5.88858191 -6 7 C-6.33 6.34 -6.66 5.68 -7 5 C-4.69 3.35 -2.38 1.7 0 0 Z " fill="#3A9AEF" transform="translate(721,194)"/>
<path d="M0 0 C1.65 1.65 3.3 3.3 5 5 C4.67 5.99 4.34 6.98 4 8 C2.35 7.01 0.7 6.02 -1 5 C-0.67 3.35 -0.34 1.7 0 0 Z " fill="#3896E7" transform="translate(710,171)"/>
<path d="M0 0 C1.9375 0.8125 1.9375 0.8125 4 2 C4.33 2.99 4.66 3.98 5 5 C1.48283697 5 0.62878252 4.17554415 -2 2 C-1.34 1.34 -0.68 0.68 0 0 Z " fill="#65A1DE" transform="translate(251,322)"/>
<path d="M0 0 C0.66 0.66 1.32 1.32 2 2 C0.25 6.875 0.25 6.875 -2 8 C-2.33 6.02 -2.66 4.04 -3 2 C-2.34 2 -1.68 2 -1 2 C-0.67 1.34 -0.34 0.68 0 0 Z " fill="#6CB4FB" transform="translate(532,302)"/>
<path d="M0 0 C0.598125 0.350625 1.19625 0.70125 1.8125 1.0625 C1.8125 4.0625 1.8125 4.0625 0.8125 7.0625 C0.19375 6.27875 -0.425 5.495 -1.0625 4.6875 C-3.08608661 2.09412353 -3.08608661 2.09412353 -5.1875 0.0625 C-2.1875 -0.9375 -2.1875 -0.9375 0 0 Z " fill="#3D9BED" transform="translate(413.1875,298.9375)"/>
<path d="M0 0 C2.875 0.3125 2.875 0.3125 6 1 C6.66 1.99 7.32 2.98 8 4 C7.01 4 6.02 4 5 4 C4.67 4.66 4.34 5.32 4 6 C4 5.34 4 4.68 4 4 C3.34 4 2.68 4 2 4 C2 3.34 2 2.68 2 2 C1.34 1.34 0.68 0.68 0 0 Z " fill="#2F85DD" transform="translate(491,217)"/>
<path d="M0 0 C0.66 1.32 1.32 2.64 2 4 C-0.90600261 5.25664978 -2.79604584 6 -6 6 C-4.02 4.02 -2.04 2.04 0 0 Z " fill="#348CDF" transform="translate(348,811)"/>
<path d="M0 0 C0.66 0 1.32 0 2 0 C1.67 1.65 1.34 3.3 1 5 C-1.31 5.66 -3.62 6.32 -6 7 C-6 6.34 -6 5.68 -6 5 C-5.34 5 -4.68 5 -4 5 C-3.67 4.34 -3.34 3.68 -3 3 C-2.34 3.33 -1.68 3.66 -1 4 C-0.67 2.68 -0.34 1.36 0 0 Z " fill="#3F9DED" transform="translate(524,600)"/>
<path d="M0 0 C0.33 0.66 0.66 1.32 1 2 C-1.47812494 5.45167403 -2.79606135 7.23163306 -7 8 C-6.02133662 6.85373678 -5.04205413 5.70800212 -4.0625 4.5625 C-3.51722656 3.92441406 -2.97195313 3.28632813 -2.41015625 2.62890625 C-1.63204305 1.73008851 -0.84063472 0.84063472 0 0 Z " fill="#3792E2" transform="translate(393,257)"/>
<path d="M0 0 C2.12508244 3.18762365 2.5020163 5.26512223 3 9 C2.01 9.66 1.02 10.32 0 11 C0 7.33333333 0 3.66666667 0 0 Z " fill="#14233A" transform="translate(396,243)"/>
<path d="M0 0 C2.625 -0.1875 2.625 -0.1875 5 0 C5 1.32 5 2.64 5 4 C2.69 3.67 0.38 3.34 -2 3 C-1.34 2.01 -0.68 1.02 0 0 Z " fill="#3694F4" transform="translate(489,218)"/>
<path d="M0 0 C1.67542976 0.28604898 3.34385343 0.61781233 5 1 C4.01 2.485 4.01 2.485 3 4 C2.61500109 5.65549531 2.27206865 7.3222433 2 9 C1.67 9 1.34 9 1 9 C0.63877119 7.68942607 0.28619689 6.37646376 -0.0625 5.0625 C-0.35833984 3.96615234 -0.35833984 3.96615234 -0.66015625 2.84765625 C-0.77230469 2.23792969 -0.88445313 1.62820312 -1 1 C-0.67 0.67 -0.34 0.34 0 0 Z " fill="#3A93DF" transform="translate(699,185)"/>
<path d="M0 0 C0.33 0 0.66 0 1 0 C1.2493357 1.60115576 1.47378648 3.20620159 1.6875 4.8125 C1.87892578 6.15248047 1.87892578 6.15248047 2.07421875 7.51953125 C2 10 2 10 -1 13 C-0.67 8.71 -0.34 4.42 0 0 Z " fill="#2E84D9" transform="translate(35,136)"/>
<path d="M0 0 C1 2 1 2 0.375 4.0625 C-1 6 -1 6 -3.625 6.75 C-4.800625 6.87375 -4.800625 6.87375 -6 7 C-4.02 4.69 -2.04 2.38 0 0 Z " fill="#3894E7" transform="translate(82,42)"/>
<path d="M0 0 C1.17539996 0.92652701 2.34010577 1.86663387 3.5 2.8125 C4.1496875 3.33457031 4.799375 3.85664062 5.46875 4.39453125 C7 6 7 6 7 9 C6.01 8.34 5.02 7.68 4 7 C4 6.34 4 5.68 4 5 C3.34 5 2.68 5 2 5 C1.34 3.35 0.68 1.7 0 0 Z " fill="#4DA0E9" transform="translate(814,45)"/>
<path d="M0 0 C0.99 0.33 1.98 0.66 3 1 C2.67 1.99 2.34 2.98 2 4 C-0.31 4.33 -2.62 4.66 -5 5 C-3.35 3.35 -1.7 1.7 0 0 Z " fill="#3895ED" transform="translate(91,34)"/>
<path d="M0 0 C0.33 0.66 0.66 1.32 1 2 C-0.75 2.6875 -0.75 2.6875 -3 3 C-5.25 1.5625 -5.25 1.5625 -7 0 C-4.30234372 -1.34882814 -2.84835666 -0.80338265 0 0 Z " fill="#3A93E9" transform="translate(397,789)"/>
<path d="M0 0 C0.99 0.33 1.98 0.66 3 1 C3 1.66 3 2.32 3 3 C3.66 3 4.32 3 5 3 C5.33 2.34 5.66 1.68 6 1 C6.33 1.99 6.66 2.98 7 4 C5.35 4.33 3.7 4.66 2 5 C1.34 3.35 0.68 1.7 0 0 Z " fill="#3B95EA" transform="translate(639,730)"/>
<path d="M0 0 C2.6855594 2.6855594 3.06049974 5.37621328 4 9 C3.01 8.67 2.02 8.34 1 8 C-0.25 5.0625 -0.25 5.0625 -1 2 C-0.67 1.34 -0.34 0.68 0 0 Z " fill="#3386D4" transform="translate(644,703)"/>
<path d="M0 0 C0.66 1.32 1.32 2.64 2 4 C1.34 4 0.68 4 0 4 C-0.33 5.32 -0.66 6.64 -1 8 C-1.99 6.68 -2.98 5.36 -4 4 C-2.68 3.34 -1.36 2.68 0 2 C0 1.34 0 0.68 0 0 Z " fill="#338EE8" transform="translate(614,666)"/>
<path d="M0 0 C2.12038635 2.61514317 4.13091744 5.19637616 6 8 C5.01 8.495 5.01 8.495 4 9 C4 8.34 4 7.68 4 7 C3.01 6.67 2.02 6.34 1 6 C0.67 4.02 0.34 2.04 0 0 Z " fill="#3892E5" transform="translate(686,624)"/>
<path d="M0 0 C0.99 0.33 1.98 0.66 3 1 C3.33 1.99 3.66 2.98 4 4 C3.67 4.66 3.34 5.32 3 6 C2.01 5.67 1.02 5.34 0 5 C-0.75 3 -0.75 3 -1 1 C-0.67 0.67 -0.34 0.34 0 0 Z " fill="#6DA9EA" transform="translate(537,617)"/>
<path d="M0 0 C0 3.99904969 -1.72586967 5.80200422 -4 9 C-4.33 8.34 -4.66 7.68 -5 7 C-5.66 6.67 -6.32 6.34 -7 6 C-4.69 4.02 -2.38 2.04 0 0 Z " fill="#3895EB" transform="translate(265,399)"/>
<path d="M0 0 C0 3 0 3 -2.5 5.6875 C-3.325 6.450625 -4.15 7.21375 -5 8 C-5.33 6.68 -5.66 5.36 -6 4 C-4.02 2.68 -2.04 1.36 0 0 Z " fill="#3492ED" transform="translate(514,334)"/>
<path d="M0 0 C1.32 0.33 2.64 0.66 4 1 C4.33 2.32 4.66 3.64 5 5 C3.35 5 1.7 5 0 5 C0 3.35 0 1.7 0 0 Z " fill="#3D96E9" transform="translate(161,185)"/>
<path d="M0 0 C1 3 1 3 0 6 C-1.65 6.33 -3.3 6.66 -5 7 C-3.35 4.69 -1.7 2.38 0 0 Z " fill="#328BE1" transform="translate(75,49)"/>
<path d="M0 0 C2.625 0.9375 2.625 0.9375 5 2 C5 2.66 5 3.32 5 4 C2.625 4.1875 2.625 4.1875 0 4 C-0.66 3.01 -1.32 2.02 -2 1 C-1.34 0.67 -0.68 0.34 0 0 Z " fill="#3989DC" transform="translate(193,659)"/>
<path d="M0 0 C0.33 1.32 0.66 2.64 1 4 C-0.9375 6.25 -0.9375 6.25 -3 8 C-3.66 7.67 -4.32 7.34 -5 7 C-3.35 4.69 -1.7 2.38 0 0 Z " fill="#3488DF" transform="translate(219,608)"/>
<path d="M0 0 C1.32 0.66 2.64 1.32 4 2 C2.35 3.32 0.7 4.64 -1 6 C-1.042721 4.33388095 -1.04063832 2.66617115 -1 1 C-0.67 0.67 -0.34 0.34 0 0 Z " fill="#3390EC" transform="translate(249,593)"/>
<path d="M0 0 C1.65 1.65 3.3 3.3 5 5 C4.34 5.66 3.68 6.32 3 7 C1.68 5.68 0.36 4.36 -1 3 C-0.67 2.01 -0.34 1.02 0 0 Z " fill="#3286D9" transform="translate(194,481)"/>
<path d="M0 0 C0.66 0 1.32 0 2 0 C0.55746343 3.36591866 -1.33264727 5.51047079 -4 8 C-4 7.01 -4 6.02 -4 5 C-3.34 5 -2.68 5 -2 5 C-1.34 3.35 -0.68 1.7 0 0 Z " fill="#79B8EA" transform="translate(714,375)"/>
<path d="M0 0 C0.66 0 1.32 0 2 0 C2.25 2.25 2.25 2.25 2 5 C0 7.3125 0 7.3125 -2 9 C-1.34 6.03 -0.68 3.06 0 0 Z " fill="#3280CB" transform="translate(335,371)"/>
<path d="M0 0 C1.65 1.65 3.3 3.3 5 5 C4.01 5 3.02 5 2 5 C1.34 4.34 0.68 3.68 0 3 C-0.99 3 -1.98 3 -3 3 C-2.01 2.01 -1.02 1.02 0 0 Z " fill="#368DE1" transform="translate(642,322)"/>
<path d="M0 0 C0.93065133 2.60582371 1.14917407 3.64198224 0.0625 6.25 C-0.4634375 7.11625 -0.4634375 7.11625 -1 8 C-1.99 7.01 -2.98 6.02 -4 5 C-2.68 3.35 -1.36 1.7 0 0 Z " fill="#3B94E6" transform="translate(735,179)"/>
<path d="M0 0 C1.65 1.32 3.3 2.64 5 4 C4.34 5.32 3.68 6.64 3 8 C2.34 7.34 1.68 6.68 1 6 C1 5.34 1 4.68 1 4 C0.68521554 2.66216607 0.35412344 1.32796291 0 0 Z " fill="#47A4F9" transform="translate(809,40)"/>
</svg>
